<?xml version="1.0" encoding="UTF-8"?>
<svg version="1.1" xmlns="http://www.w3.org/2000/svg" width="736" height="414">
<path d="M0 0 C242.88 0 485.76 0 736 0 C736 136.62 736 273.24 736 414 C493.12 414 250.24 414 0 414 C0 277.38 0 140.76 0 0 Z " fill="#3645BF" transform="translate(0,0)"/>
<path d="M0 0 C242.88 0 485.76 0 736 0 C736 68.97 736 137.94 736 209 C731.26893564 207.42297855 729.1883335 206.6672243 725.5 203.875 C718.74819673 198.97582567 711.46319002 194.73159501 704 191 C704 190.34 704 189.68 704 189 C703.34902344 188.76539063 702.69804688 188.53078125 702.02734375 188.2890625 C698.04129302 186.59177638 694.3347869 184.49868145 690.5625 182.375 C689.7677124 181.9305957 688.9729248 181.48619141 688.15405273 181.02832031 C683.27511971 178.29513959 678.41369284 175.53206076 673.5625 172.75 C667.75068409 169.41753675 661.89795758 166.17705449 656 163 C654.89527344 162.39542969 653.79054688 161.79085937 652.65234375 161.16796875 C644.03321098 156.47887002 635.25266272 152.21435207 626.3671875 148.0546875 C621.53366572 145.79072826 616.75175654 143.43084717 612 141 C612 140.34 612 139.68 612 139 C611.15179687 138.89429688 610.30359375 138.78859375 609.4296875 138.6796875 C605.68337803 137.93725259 602.60800133 136.6842055 599.125 135.125 C594.83368151 133.21454725 590.54511608 131.41633059 586.13916016 129.79492188 C583.85511268 128.9461592 581.58853146 128.05811684 579.3203125 127.16796875 C548.002964 115.08504057 514.00445775 109.18881505 481.125 119.375 C480.444375 119.5709375 479.76375 119.766875 479.0625 119.96875 C470.35353853 122.58474983 462.80235099 127.19454175 455.0625 131.875 C453.79889648 132.63103516 453.79889648 132.63103516 452.50976562 133.40234375 C447.5580839 136.38326377 442.73691651 139.48425549 438.00561523 142.80517578 C435.98773188 144.0073086 434.29520317 144.56199149 432 145 C432 145.66 432 146.32 432 147 C430.04327319 147.92009098 428.08451474 148.83586149 426.125 149.75 C425.03445313 150.26046875 423.94390625 150.7709375 422.8203125 151.296875 C395.73646224 163.57620081 365.27881836 168.85135643 336.01171875 173.10546875 C310.63512753 175.4685432 310.63512753 175.4685432 290 188 C288.55717089 190.89185062 287.79731117 193.87575351 287 197 C283.50295737 210.66384801 278.88848554 219.98691429 266.375 227.69921875 C262.02693069 230.08064487 257.57914798 232.1058399 253 234 C252.13632813 234.37253906 251.27265625 234.74507812 250.3828125 235.12890625 C227.88743392 244.17378399 199.33963119 241.34217533 176 237 C174.60417807 236.74951578 173.20816732 236.50008246 171.81201172 236.25146484 C166.99660128 235.3924914 162.18528764 234.51216862 157.375 233.625 C156.22099197 233.41386063 156.22099197 233.41386063 155.04367065 233.19845581 C144.02600804 231.16776782 133.24805395 228.58509107 122.43774414 225.65362549 C115.76383849 223.86416992 109.05703082 222.19836642 102.35571289 220.51513672 C100.65433767 220.08689386 98.95349242 219.65654019 97.25317383 219.22412109 C55.75724907 208.57208719 55.75724907 208.57208719 15.6796875 220.109375 C11.1983025 223.2711685 7.27011137 226.99567992 3.3359375 230.8046875 C1 233 1 233 0 233 C0 156.11 0 79.22 0 0 Z " fill="#1F3499" transform="translate(0,0)"/>
<path d="M0 0 C1.82385752 0.71435711 3.674955 1.35909958 5.53320312 1.97851562 C10.10228778 3.50154384 14.45378503 5.52975769 18.86132812 7.46289062 C21.97495146 8.76495129 25.08332607 9.88084119 28.29882812 10.90039062 C28.29882812 11.56039062 28.29882812 12.22039062 28.29882812 12.90039062 C29.13305298 13.15236206 29.13305298 13.15236206 29.98413086 13.40942383 C35.45899605 15.1372022 40.34824018 17.30977688 45.36132812 20.08789062 C46.8421724 20.89168334 48.32396793 21.69372564 49.80664062 22.49414062 C50.55075195 22.89632812 51.29486328 23.29851562 52.06152344 23.71289062 C55.58202535 25.58147654 59.15862746 27.33210789 62.73632812 29.08789062 C67.85943238 31.61407494 72.7570349 34.320357 77.61132812 37.33789062 C81.09399818 39.3626988 84.68368937 41.12598957 88.29882812 42.90039062 C93.70624048 45.55667438 98.93052818 48.34961726 104.05664062 51.52539062 C106.37502384 52.94711692 108.7293477 54.27584895 111.11132812 55.58789062 C111.83835937 55.99007812 112.56539062 56.39226562 113.31445312 56.80664062 C114.99667545 57.73384978 116.67899153 58.66088883 118.36132812 59.58789062 C119.00070312 60.02101563 119.64007812 60.45414062 120.29882812 60.90039062 C120.29882812 61.56039062 120.29882812 62.22039062 120.29882812 62.90039062 C121.10578125 63.12082031 121.91273438 63.34125 122.74414062 63.56835938 C127.2647485 65.2623454 131.09828528 67.65121804 135.17382812 70.21289062 C135.93824219 70.68662109 136.70265625 71.16035156 137.49023438 71.6484375 C139.76386651 73.05932467 142.03173376 74.47902259 144.29882812 75.90039062 C144.97040955 76.22386978 145.64199097 76.54734894 146.33392334 76.88063049 C151.88911135 79.77782403 151.88911135 79.77782403 152.99630737 82.81138611 C153.22582666 85.14761327 153.20026662 87.35680729 153.08007812 89.70117188 C153.06875854 90.53754684 153.05743896 91.37392181 153.04577637 92.23564148 C153.00112368 94.89709371 152.90080481 97.55307905 152.79882812 100.21289062 C152.75868573 102.02075529 152.72218625 103.82870476 152.68945312 105.63671875 C152.60142741 110.0600368 152.46347563 114.47928837 152.29882812 118.90039062 C147.82428036 117.24849665 144.70505923 114.91939738 141.17382812 111.77539062 C136.329339 107.56800943 131.38277858 103.67215295 126.14648438 99.95507812 C122.20312552 97.10980136 118.3698902 94.12835654 114.53710938 91.13647461 C111.55590707 88.80646084 111.55590707 88.80646084 108.29882812 86.90039062 C108.29882812 86.24039063 108.29882812 85.58039063 108.29882812 84.90039062 C107.76257813 84.81789063 107.22632813 84.73539062 106.67382812 84.65039062 C103.42542121 83.62457792 101.01130954 81.93475168 98.29882812 79.90039062 C98.29882812 79.24039063 98.29882812 78.58039063 98.29882812 77.90039062 C97.21988281 77.51367188 97.21988281 77.51367188 96.11914062 77.11914062 C93.15085012 75.83644445 90.79255217 74.29035661 88.17382812 72.40039062 C87.325625 71.79195313 86.47742188 71.18351562 85.60351562 70.55664062 C84.46269531 69.73679688 84.46269531 69.73679688 83.29882812 68.90039062 C82.30882812 68.24039063 81.31882812 67.58039063 80.29882812 66.90039062 C80.29882812 66.24039063 80.29882812 65.58039063 80.29882812 64.90039062 C78.31882812 64.24039063 76.33882812 63.58039063 74.29882812 62.90039062 C74.29882812 62.24039063 74.29882812 61.58039063 74.29882812 60.90039062 C73.01105469 60.52914062 73.01105469 60.52914062 71.69726562 60.15039062 C68.03106113 58.80190162 65.16275934 57.07567282 61.92382812 54.90039062 C60.86421875 54.19914062 59.80460938 53.49789062 58.71289062 52.77539062 C57.91625 52.15664062 57.11960937 51.53789062 56.29882812 50.90039062 C56.29882812 50.24039063 56.29882812 49.58039063 56.29882812 48.90039062 C55.43257812 48.67351562 54.56632813 48.44664062 53.67382812 48.21289062 C49.8013001 46.7069075 47.47272519 44.55610042 44.29882812 41.90039062 C42.57586401 41.15850255 40.8518217 40.41869333 39.11645508 39.70629883 C36.35270199 38.48089266 33.89525669 36.85445013 31.36132812 35.21289062 C23.9397459 30.55061461 16.18563053 26.70711425 8.29882812 22.90039062 C8.29882812 22.24039063 8.29882812 21.58039063 8.29882812 20.90039062 C7.76773438 20.78824219 7.23664063 20.67609375 6.68945312 20.56054688 C3.68832454 19.73180385 0.9147465 18.55279081 -1.95117188 17.33789062 C-3.02882813 16.88285156 -4.10648438 16.4278125 -5.21679688 15.95898438 C-6.03664063 15.60964844 -6.85648438 15.2603125 -7.70117188 14.90039062 C-7.70117188 14.24039063 -7.70117188 13.58039063 -7.70117188 12.90039062 C-11.66117188 11.91039062 -15.62117187 10.92039063 -19.70117188 9.90039062 C-19.70117188 9.24039063 -19.70117188 8.58039063 -19.70117188 7.90039062 C-21.02117187 7.90039062 -22.34117187 7.90039062 -23.70117188 7.90039062 C-23.70117188 7.24039063 -23.70117188 6.58039063 -23.70117188 5.90039062 C-24.25289062 5.76503906 -24.80460938 5.6296875 -25.37304688 5.49023438 C-26.97184172 5.08517058 -28.56552068 4.6595291 -30.15429688 4.21679688 C-44.08391539 0.4620254 -57.55638543 -0.28153959 -71.88867188 -0.28710938 C-72.58151276 -0.28810638 -73.27435364 -0.28910339 -73.9881897 -0.29013062 C-82.90762049 -0.35719893 -82.90762049 -0.35719893 -91.70117188 0.90039062 C-94.29726947 1.14559924 -96.89300482 1.33819594 -99.49414062 1.52148438 C-101.90187262 1.71624858 -101.90187262 1.71624858 -103.70117188 3.90039062 C-107.29549019 4.49503888 -110.89104361 4.85792832 -114.51367188 5.24023438 C-117.9886713 5.57085341 -117.9886713 5.57085341 -119.70117188 8.90039062 C-120.62929688 8.59101563 -120.62929688 8.59101563 -121.57617188 8.27539062 C-122.27742188 8.15164062 -122.97867188 8.02789062 -123.70117188 7.90039062 C-124.36117187 8.56039062 -125.02117187 9.22039062 -125.70117188 9.90039062 C-127.82617188 10.52539062 -127.82617188 10.52539062 -129.70117188 10.90039062 C-128.71117187 11.89039063 -127.72117187 12.88039062 -126.70117188 13.90039062 C-131.45117188 13.15039062 -131.45117188 13.15039062 -133.70117188 10.90039062 C-134.07242188 11.72539062 -134.44367188 12.55039063 -134.82617188 13.40039062 C-135.44492187 14.22539062 -136.06367188 15.05039063 -136.70117188 15.90039062 C-139.45117188 16.02539062 -139.45117188 16.02539062 -142.70117188 15.90039062 C-146.45474148 17.03259357 -146.45474148 17.03259357 -149.70117188 18.90039062 C-150.00667969 19.57457031 -150.3121875 20.24875 -150.62695312 20.94335938 C-151.70117188 22.90039062 -151.70117188 22.90039062 -153.75976562 23.62304688 C-154.54480469 23.73519531 -155.32984375 23.84734375 -156.13867188 23.96289062 C-159.57449576 24.41164082 -159.57449576 24.41164082 -162.23632812 26.45898438 C-163.70117188 27.90039062 -163.70117188 27.90039062 -167.70117188 27.90039062 C-167.70117188 29.22039062 -167.70117188 30.54039062 -167.70117188 31.90039062 C-168.54679687 31.69414062 -169.39242188 31.48789063 -170.26367188 31.27539062 C-174.24099458 30.84150088 -176.90541016 31.7545003 -180.70117188 32.90039062 C-181.69117188 32.57039063 -182.68117188 32.24039063 -183.70117188 31.90039062 C-181.21524007 29.41445882 -179.39815765 29.13290459 -176.01367188 28.21289062 C-169.88104117 26.41279925 -164.28311458 24.00203846 -158.55200195 21.18676758 C-153.87767284 18.90039062 -153.87767284 18.90039062 -151.70117188 18.90039062 C-151.70117188 18.24039063 -151.70117188 17.58039063 -151.70117188 16.90039062 C-149.63867188 15.52539062 -149.63867188 15.52539062 -146.70117188 13.90039062 C-141.57640876 10.99878125 -136.55899979 7.97666596 -131.57617188 4.83789062 C-130.88724854 4.40774658 -130.1983252 3.97760254 -129.48852539 3.53442383 C-126.63404403 1.75195197 -123.79282153 -0.03894917 -120.98632812 -1.89648438 C-85.40509475 -24.8673971 -36.25835106 -14.55193688 0 0 Z " fill="#CC5CF7" transform="translate(583.701171875,128.099609375)"/>
<path d="M0 0 C1.40703848 0.35866055 2.8141035 0.71721699 4.22119141 1.07568359 C4.95533264 1.26402771 5.68947388 1.45237183 6.44586182 1.64642334 C10.39524209 2.6560576 14.35030239 3.64299942 18.3046875 4.6328125 C19.96680071 5.04978942 21.62891003 5.4667818 23.29101562 5.88378906 C29.43003931 7.42252983 35.57101379 8.95342822 41.71261597 10.48184204 C46.10197181 11.57428366 50.48938895 12.67385041 54.875 13.78125 C65.19435082 16.35258989 75.59718376 18.43516488 86.04296875 20.41796875 C86.70643311 20.54498169 87.36989746 20.67199463 88.0534668 20.80285645 C103.00869106 23.64983295 117.53577083 25.59864153 132.79296875 25.48046875 C134.10426758 25.47152588 135.41556641 25.46258301 136.76660156 25.45336914 C157.99117462 25.19830422 180.8054945 21.0946016 196.73046875 5.60546875 C198.6218108 3.56686892 200.3190714 1.4827843 202.04296875 -0.70703125 C202.59984375 -1.38765625 203.15671875 -2.06828125 203.73046875 -2.76953125 C204.39046875 -2.76953125 205.05046875 -2.76953125 205.73046875 -2.76953125 C204.3734399 11.88638035 198.7551412 22.78463026 187.34375 32.3828125 C174.57025617 41.41399723 160.44673218 45.30965361 144.92578125 45.3984375 C143.8496608 45.4046537 143.8496608 45.4046537 142.75180054 45.41099548 C140.4529698 45.42058184 138.1543162 45.42066749 135.85546875 45.41796875 C135.07212158 45.41802917 134.28877441 45.4180896 133.48168945 45.41815186 C122.113667 45.40562687 110.96983732 45.07821075 99.73046875 43.23046875 C98.27253906 42.99650391 98.27253906 42.99650391 96.78515625 42.7578125 C94.09064781 42.29039777 91.41319462 41.7610357 88.73046875 41.23046875 C87.55742187 41.02679688 86.384375 40.823125 85.17578125 40.61328125 C76.929454 39.17375979 68.90345065 37.28226063 60.82958984 35.07373047 C54.28620408 33.30911673 47.73248695 32.024441 41.05078125 30.90625 C38.03626284 30.29270684 35.56812524 29.37272667 32.73046875 28.23046875 C30.55126977 27.79122838 28.36184355 27.4017913 26.16796875 27.04296875 C16.87565694 25.4380049 7.78466371 23.04450068 -1.33227539 20.65551758 C-20.72927251 15.65285606 -40.68448427 14.92651159 -59.26953125 23.23046875 C-60.58953125 23.23046875 -61.90953125 23.23046875 -63.26953125 23.23046875 C-63.26953125 24.22046875 -63.26953125 25.21046875 -63.26953125 26.23046875 C-64.94921875 27.8359375 -64.94921875 27.8359375 -67.14453125 29.41796875 C-67.86382812 29.94777344 -68.583125 30.47757813 -69.32421875 31.0234375 C-71.26953125 32.23046875 -71.26953125 32.23046875 -73.26953125 32.23046875 C-73.51703125 32.80796875 -73.76453125 33.38546875 -74.01953125 33.98046875 C-75.43680382 36.53155937 -77.18135412 38.21019982 -79.26953125 40.23046875 C-80.72314928 22.06397057 -80.72314928 22.06397057 -77.65234375 16.078125 C-75.3362979 13.73323161 -73.04817028 11.9994279 -70.26953125 10.23046875 C-68.97015625 9.29074219 -68.97015625 9.29074219 -67.64453125 8.33203125 C-46.74774907 -6.06487973 -23.83881902 -6.12772297 0 0 Z " fill="#08A2CB" transform="translate(79.26953125,213.76953125)"/>
<path d="M0 0 C2.73855438 1.07241258 5.52001334 1.98622843 8.31298828 2.90576172 C10.32768926 3.87580293 12.33220875 4.86821054 14.31298828 5.90576172 C10.69216818 6.91959135 7.0348741 7.40473863 3.31298828 7.90576172 C1.80739289 5.94194165 0.42167145 4.12312806 -0.68701172 1.90576172 C-3.49681845 1.2134914 -3.49681845 1.2134914 -6.74951172 0.78076172 C-7.85423828 0.61318359 -8.95896484 0.44560547 -10.09716797 0.27294922 C-10.95181641 0.15177734 -11.80646484 0.03060547 -12.68701172 -0.09423828 C-12.68701172 -0.75423828 -12.68701172 -1.41423828 -12.68701172 -2.09423828 C-15.06598175 -2.13934189 -15.06598175 -2.13934189 -17.68701172 -1.09423828 C-19.36550996 1.13660922 -20.44700435 3.37982078 -21.68701172 5.90576172 C-20.32576172 6.12232422 -20.32576172 6.12232422 -18.93701172 6.34326172 C-15.68701172 6.90576172 -15.68701172 6.90576172 -13.56201172 7.46826172 C-11.35867845 8.05724813 -11.35867845 8.05724813 -7.68701172 7.90576172 C-7.35701172 9.22576172 -7.02701172 10.54576172 -6.68701172 11.90576172 C-6.35701172 11.24576172 -6.02701172 10.58576172 -5.68701172 9.90576172 C-5.02701172 9.90576172 -4.36701172 9.90576172 -3.68701172 9.90576172 C-3.41888672 10.54513672 -3.15076172 11.18451172 -2.87451172 11.84326172 C-1.8003342 14.23707858 -1.8003342 14.23707858 1.31298828 14.90576172 C1.31298828 15.56576172 1.31298828 16.22576172 1.31298828 16.90576172 C2.96298828 16.90576172 4.61298828 16.90576172 6.31298828 16.90576172 C6.31298828 17.56576172 6.31298828 18.22576172 6.31298828 18.90576172 C9.28298828 19.89576172 9.28298828 19.89576172 12.31298828 20.90576172 C12.31298828 21.89576172 12.31298828 22.88576172 12.31298828 23.90576172 C10.99298828 23.57576172 9.67298828 23.24576172 8.31298828 22.90576172 C8.31298828 22.24576172 8.31298828 21.58576172 8.31298828 20.90576172 C7.78189453 20.79361328 7.25080078 20.68146484 6.70361328 20.56591797 C3.7024847 19.73717495 0.92890666 18.5581619 -1.93701172 17.34326172 C-3.01466797 16.88822266 -4.09232422 16.43318359 -5.20263672 15.96435547 C-6.02248047 15.61501953 -6.84232422 15.26568359 -7.68701172 14.90576172 C-7.68701172 14.24576172 -7.68701172 13.58576172 -7.68701172 12.90576172 C-11.64701172 11.91576172 -15.60701172 10.92576172 -19.68701172 9.90576172 C-19.68701172 9.24576172 -19.68701172 8.58576172 -19.68701172 7.90576172 C-21.00701172 7.90576172 -22.32701172 7.90576172 -23.68701172 7.90576172 C-23.68701172 7.24576172 -23.68701172 6.58576172 -23.68701172 5.90576172 C-24.23873047 5.77041016 -24.79044922 5.63505859 -25.35888672 5.49560547 C-26.95768156 5.09054167 -28.55136052 4.66490019 -30.14013672 4.22216797 C-44.06975523 0.4673965 -57.54222528 -0.2761685 -71.87451172 -0.28173828 C-72.5673526 -0.28273529 -73.26019348 -0.2837323 -73.97402954 -0.28475952 C-82.89346033 -0.35182783 -82.89346033 -0.35182783 -91.68701172 0.90576172 C-94.28310931 1.15097034 -96.87884466 1.34356704 -99.47998047 1.52685547 C-101.88771246 1.72161968 -101.88771246 1.72161968 -103.68701172 3.90576172 C-107.28133003 4.50040997 -110.87688345 4.86329941 -114.49951172 5.24560547 C-117.97451114 5.5762245 -117.97451114 5.5762245 -119.68701172 8.90576172 C-120.61513672 8.59638672 -120.61513672 8.59638672 -121.56201172 8.28076172 C-122.26326172 8.15701172 -122.96451172 8.03326172 -123.68701172 7.90576172 C-124.34701172 8.56576172 -125.00701172 9.22576172 -125.68701172 9.90576172 C-127.81201172 10.53076172 -127.81201172 10.53076172 -129.68701172 10.90576172 C-128.69701172 11.89576172 -127.70701172 12.88576172 -126.68701172 13.90576172 C-131.43701172 13.15576172 -131.43701172 13.15576172 -133.68701172 10.90576172 C-134.05826172 11.73076172 -134.42951172 12.55576172 -134.81201172 13.40576172 C-135.43076172 14.23076172 -136.04951172 15.05576172 -136.68701172 15.90576172 C-139.43701172 16.03076172 -139.43701172 16.03076172 -142.68701172 15.90576172 C-146.44058133 17.03796466 -146.44058133 17.03796466 -149.68701172 18.90576172 C-149.99251953 19.57994141 -150.29802734 20.25412109 -150.61279297 20.94873047 C-151.68701172 22.90576172 -151.68701172 22.90576172 -153.74560547 23.62841797 C-154.53064453 23.74056641 -155.31568359 23.85271484 -156.12451172 23.96826172 C-159.5603356 24.41701192 -159.5603356 24.41701192 -162.22216797 26.46435547 C-163.68701172 27.90576172 -163.68701172 27.90576172 -167.68701172 27.90576172 C-167.68701172 29.22576172 -167.68701172 30.54576172 -167.68701172 31.90576172 C-168.53263672 31.69951172 -169.37826172 31.49326172 -170.24951172 31.28076172 C-174.22683442 30.84687197 -176.89125001 31.75987139 -180.68701172 32.90576172 C-181.67701172 32.57576172 -182.66701172 32.24576172 -183.68701172 31.90576172 C-181.20107992 29.41982992 -179.38399749 29.13827569 -175.99951172 28.21826172 C-169.86688101 26.41817034 -164.26895442 24.00740955 -158.5378418 21.19213867 C-153.86351268 18.90576172 -153.86351268 18.90576172 -151.68701172 18.90576172 C-151.68701172 18.24576172 -151.68701172 17.58576172 -151.68701172 16.90576172 C-149.62451172 15.53076172 -149.62451172 15.53076172 -146.68701172 13.90576172 C-141.5622486 11.00415234 -136.54483964 7.98203705 -131.56201172 4.84326172 C-130.87308838 4.41311768 -130.18416504 3.98297363 -129.47436523 3.53979492 C-126.61988388 1.75732307 -123.77866137 -0.03357808 -120.97216797 -1.89111328 C-85.39909946 -24.85675485 -36.25092763 -14.55329211 0 0 Z " fill="#9272EA" transform="translate(583.68701171875,128.09423828125)"/>
<path d="M0 0 C-0.66 0.33 -1.32 0.66 -2 1 C-2 1.66 -2 2.32 -2 3 C-4.31 3 -6.62 3 -9 3 C-9 3.66 -9 4.32 -9 5 C-7.02 5 -5.04 5 -3 5 C-3 5.99 -3 6.98 -3 8 C0.96 7.67 4.92 7.34 9 7 C9 7.33 9 7.66 9 8 C10.93939453 8.03867188 10.93939453 8.03867188 12.91796875 8.078125 C23.2780151 8.38230426 32.26450941 9.18041884 42 13 C42 13.33 42 13.66 42 14 C40.783125 14.020625 39.56625 14.04125 38.3125 14.0625 C37.62800781 14.07410156 36.94351563 14.08570313 36.23828125 14.09765625 C34 14 34 14 31.8034668 13.50219727 C28.46097987 12.90344297 25.30233832 12.87027485 21.90625 12.8671875 C21.23710571 12.86623077 20.56796143 12.86527405 19.87854004 12.86428833 C18.46996974 12.8636107 17.06139625 12.86543579 15.65283203 12.86962891 C13.50676404 12.87498312 11.3609053 12.8696698 9.21484375 12.86328125 C7.84114538 12.86394211 6.46744713 12.86522342 5.09375 12.8671875 C3.23266602 12.86887939 3.23266602 12.86887939 1.33398438 12.87060547 C-1.58800122 12.98401001 -4.16022996 13.35120423 -7 14 C-9.59609759 14.24520862 -12.19183294 14.43780532 -14.79296875 14.62109375 C-17.20070074 14.81585796 -17.20070074 14.81585796 -19 17 C-22.59431831 17.59464825 -26.18987173 17.95753769 -29.8125 18.33984375 C-33.28749943 18.67046279 -33.28749943 18.67046279 -35 22 C-35.928125 21.690625 -35.928125 21.690625 -36.875 21.375 C-37.57625 21.25125 -38.2775 21.1275 -39 21 C-39.66 21.66 -40.32 22.32 -41 23 C-43.125 23.625 -43.125 23.625 -45 24 C-44.01 24.99 -43.02 25.98 -42 27 C-46.75 26.25 -46.75 26.25 -49 24 C-49.37125 24.825 -49.7425 25.65 -50.125 26.5 C-50.74375 27.325 -51.3625 28.15 -52 29 C-54.75 29.125 -54.75 29.125 -58 29 C-61.75356961 30.13220294 -61.75356961 30.13220294 -65 32 C-65.30550781 32.67417969 -65.61101562 33.34835938 -65.92578125 34.04296875 C-67 36 -67 36 -69.05859375 36.72265625 C-69.84363281 36.83480469 -70.62867188 36.94695312 -71.4375 37.0625 C-74.87332388 37.5112502 -74.87332388 37.5112502 -77.53515625 39.55859375 C-79 41 -79 41 -83 41 C-83 42.32 -83 43.64 -83 45 C-83.845625 44.79375 -84.69125 44.5875 -85.5625 44.375 C-89.5398227 43.94111025 -92.20423829 44.85410967 -96 46 C-96.99 45.67 -97.98 45.34 -99 45 C-96.5140682 42.5140682 -94.69698577 42.23251397 -91.3125 41.3125 C-85.17986929 39.51240862 -79.5819427 37.10164783 -73.85083008 34.28637695 C-69.17650096 32 -69.17650096 32 -67 32 C-67 31.34 -67 30.68 -67 30 C-64.9375 28.625 -64.9375 28.625 -62 27 C-56.87523688 24.09839062 -51.85782792 21.07627533 -46.875 17.9375 C-46.18607666 17.50735596 -45.49715332 17.07721191 -44.78735352 16.6340332 C-41.93287216 14.85156135 -39.09164965 13.0606602 -36.28515625 11.203125 C-26.47782701 4.87160463 -11.82194801 -0.76270632 0 0 Z " fill="#7C77E8" transform="translate(499,115)"/>
<path d="M0 0 C-2.475 3.465 -2.475 3.465 -5 7 C-5.99 6.34 -6.98 5.68 -8 5 C-13.59319229 5.44156781 -17.40889446 8.16296701 -21.1875 12.125 C-26.87086889 19.15250755 -26.07552503 27.11337503 -25.9453125 35.75390625 C-26.01087343 39.64541592 -26.61552867 42.38499151 -28 46 C-28.309375 46.886875 -28.61875 47.77375 -28.9375 48.6875 C-30.04812013 51.10473204 -31.38625633 52.88971982 -33 55 C-33.598125 56.093125 -34.19625 57.18625 -34.8125 58.3125 C-38.4770632 64.79808544 -43.51287826 69.64795246 -49.16796875 74.421875 C-51.02405782 75.9594652 -51.02405782 75.9594652 -52.59375 77.73046875 C-53.0578125 78.14941406 -53.521875 78.56835938 -54 79 C-55.67004829 78.68404492 -57.33637583 78.34820041 -59 78 C-61.02045442 78.60183749 -63.02111039 79.27306096 -65 80 C-66.99369031 80.36920191 -68.99279077 80.71325582 -71 81 C-71 81.66 -71 82.32 -71 83 C-71.99 83 -72.98 83 -74 83 C-74.33 83.99 -74.66 84.98 -75 86 C-75.33 85.01 -75.66 84.02 -76 83 C-76.9446814 83.13631836 -76.9446814 83.13631836 -77.90844727 83.27539062 C-80.79243446 83.68863762 -83.67743163 84.09437291 -86.5625 84.5 C-87.55314453 84.64308594 -88.54378906 84.78617187 -89.56445312 84.93359375 C-102.29484332 86.70992727 -102.29484332 86.70992727 -106.91918945 85.49633789 C-109.13390585 84.9680593 -111.0542725 84.88610195 -113.328125 84.90234375 C-114.52695313 84.90717773 -114.52695313 84.90717773 -115.75 84.91210938 C-116.575 84.92048828 -117.4 84.92886719 -118.25 84.9375 C-119.09046875 84.94201172 -119.9309375 84.94652344 -120.796875 84.95117188 C-122.86461401 84.96292039 -124.93231624 84.98085478 -127 85 C-127.33 85.66 -127.66 86.32 -128 87 C-129.72526042 86.25130208 -131.45052083 85.50260417 -133.17578125 84.75390625 C-134.75711021 84.10038058 -136.37675406 83.54108198 -138 83 C-138 82.01 -138 81.02 -138 80 C-139.8253125 80.0309375 -139.8253125 80.0309375 -141.6875 80.0625 C-144.05290448 80.06662811 -146.05349496 79.9887379 -148.375 79.5 C-151.87307869 78.8336993 -155.24334358 79.02711183 -158.79296875 79.16015625 C-161 79 -161 79 -163 77 C-165.21723178 76.61176875 -167.45041941 76.31212111 -169.6875 76.0625 C-175.02652454 75.37481631 -179.06850502 74.15192508 -184 72 C-187.329453 71.40398681 -190.65500896 70.94150888 -194.01171875 70.52734375 C-196.74746386 70.0445652 -198.62380078 69.39334309 -201 68 C-201 68.99 -201 69.98 -201 71 C-201.66 70.67 -202.32 70.34 -203 70 C-202.505 69.01 -202.505 69.01 -202 68 C-203.65 68 -205.3 68 -207 68 C-207.66 66.68 -208.32 65.36 -209 64 C-211.64 64 -214.28 64 -217 64 C-217.33 63.34 -217.66 62.68 -218 62 C-211.34852591 61.6438093 -206.01278586 62.89402919 -199.6875 64.875 C-193.41554231 66.80981794 -187.27405843 68.37702151 -180.80151367 69.47705078 C-175.90754503 70.39059159 -171.12346265 71.72909098 -166.3125 73 C-157.93954867 75.16184736 -149.79558903 76.76206237 -141.19921875 77.63671875 C-138.60745495 77.9310216 -136.30771388 78.34737685 -133.8125 79.0625 C-123.40472122 81.62178986 -112.28586748 81.18644072 -101.61499023 81.18530273 C-99.30499298 81.18750716 -96.99546143 81.2057978 -94.68554688 81.22460938 C-86.92651379 81.25400655 -79.54372024 81.01357642 -72 79 C-71.17016602 78.79826172 -70.34033203 78.59652344 -69.48535156 78.38867188 C-55.72965193 74.93951642 -42.8608547 66.67271932 -35.28125 54.56640625 C-32.06644252 48.12699005 -30.31831239 41.04840286 -29 34 C-29.99 34.33 -30.98 34.66 -32 35 C-31.2861836 32.38267321 -30.57037017 29.76615798 -29.84375 27.15234375 C-29.30353354 25.13403503 -28.79986897 23.10536662 -28.34375 21.06640625 C-26.88495273 14.80573463 -25.14823948 10.07847543 -20 6 C-17.09537083 4.3446737 -14.14340991 3.12506937 -11 2 C-9.9275 1.5875 -8.855 1.175 -7.75 0.75 C-5.02794174 0.00762047 -2.80563409 -0.1650373 0 0 Z " fill="#2A6CCF" transform="translate(314,177)"/>
<path d="M0 0 C4.19469571 0.59924224 8.00999834 1.57499941 12 3 C12 3.66 12 4.32 12 5 C13.7325 5.37125 13.7325 5.37125 15.5 5.75 C20.06141704 6.87406348 23.86773557 8.78628691 28 11 C28 11.66 28 12.32 28 13 C28.68707031 13.26296875 29.37414062 13.5259375 30.08203125 13.796875 C38.67074865 17.33814 46.86977725 21.77606688 54.7578125 26.6640625 C56.88003001 27.92851962 59.01713329 29.00926098 61.25 30.0625 C63.88579786 31.33001647 65.98401701 32.70185836 68.1875 34.625 C70.79882587 36.83011962 72.78273374 37.95911974 76 39 C76 39.66 76 40.32 76 41 C76.51046875 41.24492187 77.0209375 41.48984375 77.546875 41.7421875 C80.84149893 43.4314692 84.04144469 45.27942855 87.25 47.125 C87.8996875 47.49753906 88.549375 47.87007812 89.21875 48.25390625 C90.81306224 49.16829121 92.4066079 50.08401256 94 51 C94 51.66 94 52.32 94 53 C94.9075 53.2475 95.815 53.495 96.75 53.75 C100.23657587 55.09099072 101.4072751 56.40255246 104 59 C105.82333674 60.254371 107.67959576 61.46195439 109.5625 62.625 C110.51253906 63.21539062 111.46257812 63.80578125 112.44140625 64.4140625 C113.28574219 64.93742187 114.13007812 65.46078125 115 66 C116.485 66.99 116.485 66.99 118 68 C118 68.66 118 69.32 118 70 C118.721875 70.268125 119.44375 70.53625 120.1875 70.8125 C122.99766383 71.99901362 125.48416557 73.27485639 128 75 C128 75.66 128 76.32 128 77 C128.66257812 77.19980469 129.32515625 77.39960938 130.0078125 77.60546875 C134.17582843 79.54800359 137.37296094 82.36358674 140.875 85.3125 C142.24569247 86.45647113 143.61807414 87.5984215 144.9921875 88.73828125 C145.65573242 89.2895166 146.31927734 89.84075195 147.00292969 90.40869141 C148.95245272 91.9621133 150.95256071 93.38366802 153.0078125 94.79296875 C154.48894531 95.88544922 154.48894531 95.88544922 156 97 C156 97.66 156 98.32 156 99 C155.01 99.33 154.02 99.66 153 100 C152.67 100.66 152.34 101.32 152 102 C150.68 102 149.36 102 148 102 C148 101.34 148 100.68 148 100 C148.66 100 149.32 100 150 100 C149.34 99.01 148.68 98.02 148 97 C148 95.68 148 94.36 148 93 C146.11683841 91.89163577 146.11683841 91.89163577 144 91 C143.01 91.495 143.01 91.495 142 92 C141.34 91.34 140.68 90.68 140 90 C140.33 89.01 140.66 88.02 141 87 C140.37351562 86.91363281 139.74703125 86.82726562 139.1015625 86.73828125 C136.6330292 86.31388041 134.35455951 85.86015274 132 85 C130.75 82.4375 130.75 82.4375 130 80 C127.56740432 79.24680201 127.56740432 79.24680201 125 79 C123.515 78.01 123.515 78.01 122 77 C121.34 77 120.68 77 120 77 C119.7215625 75.576875 119.7215625 75.576875 119.4375 74.125 C118.27440258 70.68147051 118.27440258 70.68147051 114.6875 69.5625 C111.30906838 69.04714602 109.22938069 69.02139979 106 70 C106 69.01 106 68.02 106 67 C106.66 67 107.32 67 108 67 C107.34 65.68 106.68 64.36 106 63 C105.01 63.495 105.01 63.495 104 64 C104 63.34 104 62.68 104 62 C103.4225 61.731875 102.845 61.46375 102.25 61.1875 C99.95743538 59.97753534 98.06373711 58.56343721 96 57 C92.74556009 54.71501719 92.74556009 54.71501719 89 54 C89 53.34 89 52.68 89 52 C87.35 52.33 85.7 52.66 84 53 C83.979375 52.2575 83.95875 51.515 83.9375 50.75 C82.70506527 47.13485813 81.06866042 46.46322218 77.78125 44.765625 C75.95356354 43.91257467 75.95356354 43.91257467 73.6875 43.5 C73.130625 43.335 72.57375 43.17 72 43 C71.5978125 42.071875 71.5978125 42.071875 71.1875 41.125 C69.36161867 37.8576334 66.37999582 37.39861896 63 36 C62.319375 35.278125 61.63875 34.55625 60.9375 33.8125 C59.04415246 31.66277758 59.04415246 31.66277758 55.75 31.75 C54.8425 31.8325 53.935 31.915 53 32 C53.495 30.515 53.495 30.515 54 29 C53.34 29 52.68 29 52 29 C52 28.34 52 27.68 52 27 C50.329375 26.87625 50.329375 26.87625 48.625 26.75 C47.42875 26.5025 46.2325 26.255 45 26 C43.875 24 43.875 24 43 22 C40.44480079 21.18828772 40.44480079 21.18828772 38 21 C38 20.34 38 19.68 38 19 C36.35 19.99 34.7 20.98 33 22 C31.9375 20.125 31.9375 20.125 31 18 C31.33 17.34 31.66 16.68 32 16 C28.01939223 14.82923301 24.08378283 13.74250597 20 13 C20 12.01 20 11.02 20 10 C19.4225 10.144375 18.845 10.28875 18.25 10.4375 C16.16666667 10.95833333 14.08333333 11.47916667 12 12 C12 11.071875 12 10.14375 12 9.1875 C11.38827377 5.9525108 11.38827377 5.9525108 9.2578125 5.0390625 C7.85541694 4.56132335 6.43769104 4.12608964 5.0078125 3.73828125 C2.71668326 2.89582322 1.59337198 1.81884914 0 0 Z M150 96 C151 98 151 98 151 98 Z M28 18 C28.99 18.33 29.98 18.66 31 19 C30.67 19.99 30.34 20.98 30 22 C29.34 21.67 28.68 21.34 28 21 C28 20.01 28 19.02 28 18 Z " fill="#3B6DD9" transform="translate(564,138)"/>
<path d="M0 0 C0.99 0 1.98 0 3 0 C2.979375 0.804375 2.95875 1.60875 2.9375 2.4375 C2.70366379 4.93354885 2.70366379 4.93354885 4 6 C6.33297433 6.04092937 8.66705225 6.04241723 11 6 C11 6.99 11 7.98 11 9 C13.64 8.67 16.28 8.34 19 8 C19 9.98 19 11.96 19 14 C26.54047904 15.07859862 26.54047904 15.07859862 34 14 C35 17 35 17 34 20 C34.66 20.33 35.32 20.66 36 21 C36 21.66 36 22.32 36 23 C36.598125 22.773125 37.19625 22.54625 37.8125 22.3125 C38.534375 22.209375 39.25625 22.10625 40 22 C40.4125 22.474375 40.825 22.94875 41.25 23.4375 C44.14142532 26.01912975 47.23648185 25.18509106 51 25 C50.505 27.475 50.505 27.475 50 30 C51.2375 30.28875 52.475 30.5775 53.75 30.875 C56.72448742 31.61334794 59.333856 32.44474933 62 34 C62 34.66 62 35.32 62 36 C62.99 36 63.98 36 65 36 C65 36.66 65 37.32 65 38 C66.918125 38.2784375 66.918125 38.2784375 68.875 38.5625 C69.59429688 38.66691406 70.31359375 38.77132812 71.0546875 38.87890625 C73.08140667 39.1684297 73.08140667 39.1684297 75 38 C75 38.99 75 39.98 75 41 C76.485 41.495 76.485 41.495 78 42 C78 42.66 78 43.32 78 44 C80.8331162 45.62507196 80.8331162 45.62507196 84 47 C84.99 46.67 85.98 46.34 87 46 C87 46.99 87 47.98 87 49 C92.24139894 52.51244011 92.24139894 52.51244011 98 55 C98 55.66 98 56.32 98 57 C99.65 57.33 101.3 57.66 103 58 C103.33 58.99 103.66 59.98 104 61 C106.92914165 62.17082878 106.92914165 62.17082878 110 63 C110.66 63.33 111.32 63.66 112 64 C112 64.66 112 65.32 112 66 C112.99 66 113.98 66 115 66 C115.33 66.66 115.66 67.32 116 68 C116.928125 68.28875 117.85625 68.5775 118.8125 68.875 C122.26311831 70.09286529 123.50292849 71.4223778 126 74 C128.63222962 75.25436187 128.63222962 75.25436187 131 76 C131 76.99 131 77.98 131 79 C125.7671361 77.7606375 122.20460138 75.11187539 117.9375 72.015625 C111.94411782 67.90314467 105.50123675 64.25061837 99 61 C99 60.34 99 59.68 99 59 C98.34902344 58.76539063 97.69804688 58.53078125 97.02734375 58.2890625 C93.04129302 56.59177638 89.3347869 54.49868145 85.5625 52.375 C84.7677124 51.9305957 83.9729248 51.48619141 83.15405273 51.02832031 C78.27511971 48.29513959 73.41369284 45.53206076 68.5625 42.75 C62.75068409 39.41753675 56.89795758 36.17705449 51 33 C49.89527344 32.39542969 48.79054688 31.79085937 47.65234375 31.16796875 C39.03321098 26.47887002 30.25266272 22.21435207 21.3671875 18.0546875 C16.53366572 15.79072826 11.75175654 13.43084717 7 11 C7 10.34 7 9.68 7 9 C6.195625 8.9175 5.39125 8.835 4.5625 8.75 C0.04065795 7.79803325 -3.84702701 5.98419821 -8 4 C-7.67 3.34 -7.34 2.68 -7 2 C-5.00714063 1.62633887 -3.00636471 1.29259485 -1 1 C-0.67 0.67 -0.34 0.34 0 0 Z " fill="#216AC3" transform="translate(605,130)"/>
<path d="M0 0 C12.65019662 -0.17152809 25.02159501 5.65627384 36.65625 10.13671875 C38.89748692 10.98401564 41.1546882 11.79101586 43.4296875 12.54296875 C46.51313689 13.58100498 49.30086873 14.96079731 52.1796875 16.46875 C48.5588674 17.48257963 44.90157332 17.96772691 41.1796875 18.46875 C39.67409211 16.50492993 38.28837067 14.68611634 37.1796875 12.46875 C34.36988077 11.77647968 34.36988077 11.77647968 31.1171875 11.34375 C30.01246094 11.17617187 28.90773438 11.00859375 27.76953125 10.8359375 C26.91488281 10.71476563 26.06023438 10.59359375 25.1796875 10.46875 C25.1796875 9.80875 25.1796875 9.14875 25.1796875 8.46875 C22.80071747 8.42364639 22.80071747 8.42364639 20.1796875 9.46875 C18.50118926 11.6995975 17.41969487 13.94280906 16.1796875 16.46875 C17.5409375 16.6853125 17.5409375 16.6853125 18.9296875 16.90625 C22.1796875 17.46875 22.1796875 17.46875 24.3046875 18.03125 C26.50802077 18.62023641 26.50802077 18.62023641 30.1796875 18.46875 C30.6746875 20.44875 30.6746875 20.44875 31.1796875 22.46875 C31.5096875 21.80875 31.8396875 21.14875 32.1796875 20.46875 C32.8396875 20.46875 33.4996875 20.46875 34.1796875 20.46875 C34.4478125 21.108125 34.7159375 21.7475 34.9921875 22.40625 C36.06636502 24.80006686 36.06636502 24.80006686 39.1796875 25.46875 C39.1796875 26.12875 39.1796875 26.78875 39.1796875 27.46875 C40.8296875 27.46875 42.4796875 27.46875 44.1796875 27.46875 C44.1796875 28.12875 44.1796875 28.78875 44.1796875 29.46875 C46.1596875 30.12875 48.1396875 30.78875 50.1796875 31.46875 C50.1796875 32.45875 50.1796875 33.44875 50.1796875 34.46875 C48.8596875 34.13875 47.5396875 33.80875 46.1796875 33.46875 C46.1796875 32.80875 46.1796875 32.14875 46.1796875 31.46875 C45.64859375 31.35660156 45.1175 31.24445313 44.5703125 31.12890625 C41.56918392 30.30016323 38.79560587 29.12115018 35.9296875 27.90625 C34.85203125 27.45121094 33.774375 26.99617188 32.6640625 26.52734375 C31.84421875 26.17800781 31.024375 25.82867187 30.1796875 25.46875 C30.1796875 24.80875 30.1796875 24.14875 30.1796875 23.46875 C26.2196875 22.47875 22.2596875 21.48875 18.1796875 20.46875 C18.1796875 19.80875 18.1796875 19.14875 18.1796875 18.46875 C16.8596875 18.46875 15.5396875 18.46875 14.1796875 18.46875 C14.1796875 17.80875 14.1796875 17.14875 14.1796875 16.46875 C13.60605469 16.33339844 13.03242187 16.19804687 12.44140625 16.05859375 C10.23960643 15.48437653 8.13115948 14.80577456 5.9921875 14.03125 C5.29738281 13.78503906 4.60257813 13.53882813 3.88671875 13.28515625 C2.1796875 12.46875 2.1796875 12.46875 1.1796875 10.46875 C-1.14187847 10.06145772 -3.4771912 9.72436323 -5.8203125 9.46875 C-5.8203125 8.80875 -5.8203125 8.14875 -5.8203125 7.46875 C-7.8003125 7.46875 -9.7803125 7.46875 -11.8203125 7.46875 C-11.8203125 7.13875 -11.8203125 6.80875 -11.8203125 6.46875 C-8.5203125 6.13875 -5.2203125 5.80875 -1.8203125 5.46875 C-2.4803125 4.80875 -3.1403125 4.14875 -3.8203125 3.46875 C-1.8203125 0.46875 -1.8203125 0.46875 0 0 Z " fill="#A06CEC" transform="translate(545.8203125,117.53125)"/>
<path d="M0 0 C0.66 0 1.32 0 2 0 C0.64297115 14.6559116 -4.97532755 25.55416151 -16.38671875 35.15234375 C-32.29785363 46.40192043 -48.91743023 48.20532727 -67.875 48.1875 C-69.0445372 48.18858765 -69.0445372 48.18858765 -70.23770142 48.18969727 C-81.60050833 48.18852625 -92.7604941 47.8164858 -104 46 C-104 45.67 -104 45.34 -104 45 C-102.83654053 45.03552979 -101.67308105 45.07105957 -100.47436523 45.10766602 C-96.08539721 45.23976336 -91.69620178 45.36228801 -87.30688477 45.48217773 C-85.42074424 45.53497619 -83.53467087 45.59024166 -81.64868164 45.64819336 C-57.68801224 47.11409662 -57.68801224 47.11409662 -35 41 C-29.74985301 38.51564209 -24.63185674 36.43792087 -19 35 C-18.95875 34.401875 -18.9175 33.80375 -18.875 33.1875 C-18 31 -18 31 -15.25 29.8125 C-10.62465879 27.23298279 -9.28549054 23.62771311 -7 19 C-6.01005812 17.32733959 -5.01567807 15.65715896 -4 14 C-4.99 13.505 -4.99 13.505 -6 13 C-8.78388975 14.70625501 -9.85384206 15.47626739 -10.75 18.6875 C-10.8325 19.450625 -10.915 20.21375 -11 21 C-11.99 20.95875 -12.98 20.9175 -14 20.875 C-18.23835866 20.8576652 -21.93193985 21.85808838 -26 23 C-26.33 24.32 -26.66 25.64 -27 27 C-29.21576266 27.71220943 -30.57701205 28.12072595 -32.84765625 27.47265625 C-35.43561441 26.90433876 -37.12364029 27.25628344 -39.6875 27.875 C-40.47511719 28.05804688 -41.26273438 28.24109375 -42.07421875 28.4296875 C-43.98930149 28.8302304 -43.98930149 28.8302304 -45 30 C-46.44289787 30.09295815 -47.89029785 30.11746513 -49.33618164 30.11352539 C-50.71750023 30.11341209 -50.71750023 30.11341209 -52.12672424 30.11329651 C-53.12775681 30.10813522 -54.12878937 30.10297394 -55.16015625 30.09765625 C-56.17975937 30.0962413 -57.19936249 30.09482635 -58.24986267 30.09336853 C-61.52077107 30.08775097 -64.79161213 30.0751955 -68.0625 30.0625 C-70.27408756 30.05748726 -72.48567618 30.05292396 -74.69726562 30.04882812 C-80.13153357 30.03777584 -85.56576197 30.02102063 -91 30 C-91 29.34 -91 28.68 -91 28 C-90.01829834 28.01047363 -89.03659668 28.02094727 -88.02514648 28.03173828 C-84.30692337 28.06853447 -80.58871551 28.09111213 -76.87036133 28.10986328 C-75.27528152 28.11978751 -73.68021923 28.13333127 -72.08520508 28.15087891 C-58.38841006 28.29755325 -44.63758868 28.23855703 -31.8125 22.8125 C-30.6846106 22.35230469 -30.6846106 22.35230469 -29.53393555 21.8828125 C-18.31198394 17.18050889 -9.24934578 11.66808788 -1.6875 2.0625 C-1.130625 1.381875 -0.57375 0.70125 0 0 Z " fill="#2991D4" transform="translate(283,211)"/>
<path d="M0 0 C2.3668715 0.01084703 4.73300288 -0.00003966 7.09985352 -0.01269531 C14.59862399 -0.01857785 21.64548372 0.15996765 28.90649414 2.26074219 C28.90649414 2.59074219 28.90649414 2.92074219 28.90649414 3.26074219 C27.68961914 3.28136719 26.47274414 3.30199219 25.21899414 3.32324219 C24.19225586 3.34064453 24.19225586 3.34064453 23.14477539 3.35839844 C20.90649414 3.26074219 20.90649414 3.26074219 18.70996094 2.76293945 C15.36747401 2.16418516 12.20883246 2.13101704 8.81274414 2.12792969 C8.14359985 2.12697296 7.47445557 2.12601624 6.78503418 2.12503052 C5.37646388 2.12435289 3.96789039 2.12617798 2.55932617 2.13037109 C0.41325818 2.13572531 -1.73260056 2.13041199 -3.87866211 2.12402344 C-5.25236048 2.12468429 -6.62605873 2.12596561 -7.99975586 2.12792969 C-9.86083984 2.12962158 -9.86083984 2.12962158 -11.75952148 2.13134766 C-14.68150708 2.24475219 -17.25373582 2.61194641 -20.09350586 3.26074219 C-22.68960345 3.50595081 -25.2853388 3.69854751 -27.88647461 3.88183594 C-30.2942066 4.07660014 -30.2942066 4.07660014 -32.09350586 6.26074219 C-35.68782417 6.85539044 -39.28337759 7.21827988 -42.90600586 7.60058594 C-46.38100529 7.93120497 -46.38100529 7.93120497 -48.09350586 11.26074219 C-48.71225586 11.05449219 -49.33100586 10.84824219 -49.96850586 10.63574219 C-50.66975586 10.51199219 -51.37100586 10.38824219 -52.09350586 10.26074219 C-52.75350586 10.92074219 -53.41350586 11.58074219 -54.09350586 12.26074219 C-56.21850586 12.88574219 -56.21850586 12.88574219 -58.09350586 13.26074219 C-57.10350586 14.25074219 -56.11350586 15.24074219 -55.09350586 16.26074219 C-59.84350586 15.51074219 -59.84350586 15.51074219 -62.09350586 13.26074219 C-62.46475586 14.08574219 -62.83600586 14.91074219 -63.21850586 15.76074219 C-63.83725586 16.58574219 -64.45600586 17.41074219 -65.09350586 18.26074219 C-67.84350586 18.38574219 -67.84350586 18.38574219 -71.09350586 18.26074219 C-74.84707547 19.39294513 -74.84707547 19.39294513 -78.09350586 21.26074219 C-78.39901367 21.93492187 -78.70452148 22.60910156 -79.01928711 23.30371094 C-80.09350586 25.26074219 -80.09350586 25.26074219 -82.15209961 25.98339844 C-82.93713867 26.09554687 -83.72217773 26.20769531 -84.53100586 26.32324219 C-87.96682974 26.77199238 -87.96682974 26.77199238 -90.62866211 28.81933594 C-92.09350586 30.26074219 -92.09350586 30.26074219 -96.09350586 30.26074219 C-96.09350586 31.58074219 -96.09350586 32.90074219 -96.09350586 34.26074219 C-96.93913086 34.05449219 -97.78475586 33.84824219 -98.65600586 33.63574219 C-102.63332856 33.20185244 -105.29774415 34.11485186 -109.09350586 35.26074219 C-110.08350586 34.93074219 -111.07350586 34.60074219 -112.09350586 34.26074219 C-109.60757406 31.77481039 -107.79049163 31.49325615 -104.40600586 30.57324219 C-98.27337515 28.77315081 -92.67544856 26.36239002 -86.94433594 23.54711914 C-82.27000682 21.26074219 -82.27000682 21.26074219 -80.09350586 21.26074219 C-80.09350586 20.60074219 -80.09350586 19.94074219 -80.09350586 19.26074219 C-77.60913086 17.60449219 -77.60913086 17.60449219 -74.34350586 15.76074219 C-73.27616211 15.15230469 -72.20881836 14.54386719 -71.10913086 13.91699219 C-66.92976862 11.62159117 -64.07020202 10.23444942 -59.32788086 9.66699219 C-56.43368338 9.14077446 -53.71084272 8.27148014 -50.90600586 7.38574219 C-33.99119509 2.06855794 -17.66612275 -0.09626306 0 0 Z " fill="#2A80DD" transform="translate(512.093505859375,125.7392578125)"/>
<path d="M0 0 C0.93320068 0.16443604 1.86640137 0.32887207 2.82788086 0.49829102 C7.79976436 1.2044683 12.74272981 1.08623165 17.75390625 1.02734375 C19.84570151 1.01470304 21.93749846 1.00234167 24.02929688 0.99023438 C27.30335893 0.96539174 30.57733096 0.93734917 33.85131836 0.90405273 C37.02718675 0.8738109 40.20293966 0.8560697 43.37890625 0.83984375 C44.35404678 0.82638412 45.32918732 0.8129245 46.33387756 0.79905701 C51.3055043 0.78075721 55.33926932 1.02494901 60 3 C60 2.34 60 1.68 60 1 C64 3 64 3 65.8125 4.0625 C68.80912721 5.3467688 71.77763576 5.62818874 75 6 C75.495 7.485 75.495 7.485 76 9 C79.3 8.67 82.6 8.34 86 8 C86 8.66 86 9.32 86 10 C87.32 10 88.64 10 90 10 C90 10.66 90 11.32 90 12 C90.66 12 91.32 12 92 12 C92 11.01 92 10.02 92 9 C92.66 9 93.32 9 94 9 C94 10.65 94 12.3 94 14 C95.32 14 96.64 14 98 14 C98 14.66 98 15.32 98 16 C99.65 16.33 101.3 16.66 103 17 C103 17.66 103 18.32 103 19 C104.32 18.67 105.64 18.34 107 18 C107 18.99 107 19.98 107 21 C101.63776834 20.1621513 96.7329651 18.07100326 91.70800781 16.10180664 C59.68483493 3.5774062 24.478223 -3.51313391 -9.1875 7.6875 C-16.60884201 10.130386 -16.60884201 10.130386 -20 9 C-18.8125 7.4375 -18.8125 7.4375 -17 6 C-14.3125 6.3125 -14.3125 6.3125 -12 7 C-12 6.34 -12 5.68 -12 5 C-8.14243493 2.84694043 -5.44870215 1.60746746 -1 2 C-0.67 1.34 -0.34 0.68 0 0 Z " fill="#2B58B6" transform="translate(490,112)"/>
<path d="M0 0 C6.65147409 -0.3561907 11.98721414 0.89402919 18.3125 2.875 C24.58445769 4.80981794 30.72594157 6.37702151 37.19848633 7.47705078 C42.09245497 8.39059159 46.87653735 9.72909098 51.6875 11 C60.06045133 13.16184736 68.20441097 14.76206237 76.80078125 15.63671875 C79.39254505 15.9310216 81.69228612 16.34737685 84.1875 17.0625 C94.70203464 19.6480413 106.03606047 19.24251119 116.8125 19.5625 C118.19857616 19.6058504 119.58464396 19.64946886 120.97070312 19.69335938 C124.31373004 19.79819297 127.65681491 19.90036123 131 20 C131 20.33 131 20.66 131 21 C87.45085136 21.78838453 87.45085136 21.78838453 71.3125 17.875 C67.18076773 16.88032371 63.29684412 16.91314709 59.06640625 17.125 C57 17 57 17 55 15 C52.78276822 14.61176875 50.54958059 14.31212111 48.3125 14.0625 C42.97347546 13.37481631 38.93149498 12.15192508 34 10 C30.670547 9.40398681 27.34499104 8.94150888 23.98828125 8.52734375 C21.25253614 8.0445652 19.37619922 7.39334309 17 6 C17 6.99 17 7.98 17 9 C16.34 8.67 15.68 8.34 15 8 C15.33 7.34 15.66 6.68 16 6 C14.35 6 12.7 6 11 6 C10.34 4.68 9.68 3.36 9 2 C6.36 2 3.72 2 1 2 C0.67 1.34 0.34 0.68 0 0 Z " fill="#1D68C3" transform="translate(96,239)"/>
<path d="M0 0 C3.465 1.485 3.465 1.485 7 3 C7 3.66 7 4.32 7 5 C8.36125 5.37125 8.36125 5.37125 9.75 5.75 C13.23657587 7.09099072 14.4072751 8.40255246 17 11 C18.82333674 12.254371 20.67959576 13.46195439 22.5625 14.625 C23.51253906 15.21539062 24.46257813 15.80578125 25.44140625 16.4140625 C26.28574219 16.93742187 27.13007812 17.46078125 28 18 C28.99 18.66 29.98 19.32 31 20 C31 20.66 31 21.32 31 22 C31.721875 22.268125 32.44375 22.53625 33.1875 22.8125 C35.99766383 23.99901362 38.48416557 25.27485639 41 27 C41 27.66 41 28.32 41 29 C41.66257812 29.19980469 42.32515625 29.39960938 43.0078125 29.60546875 C47.17582843 31.54800359 50.37296094 34.36358674 53.875 37.3125 C55.24569247 38.45647113 56.61807414 39.5984215 57.9921875 40.73828125 C58.65573242 41.2895166 59.31927734 41.84075195 60.00292969 42.40869141 C61.95245272 43.9621133 63.95256071 45.38366802 66.0078125 46.79296875 C66.99523437 47.52128906 67.98265625 48.24960938 69 49 C69 49.66 69 50.32 69 51 C67.515 51.495 67.515 51.495 66 52 C65.505 52.99 65.505 52.99 65 54 C63.68 54 62.36 54 61 54 C61 53.34 61 52.68 61 52 C61.66 52 62.32 52 63 52 C62.34 51.01 61.68 50.02 61 49 C61 47.68 61 46.36 61 45 C59.11683841 43.89163577 59.11683841 43.89163577 57 43 C56.01 43.495 56.01 43.495 55 44 C54.34 43.34 53.68 42.68 53 42 C53.33 41.01 53.66 40.02 54 39 C53.37351562 38.91363281 52.74703125 38.82726562 52.1015625 38.73828125 C49.6330292 38.31388041 47.35455951 37.86015274 45 37 C43.75 34.4375 43.75 34.4375 43 32 C40.56740432 31.24680201 40.56740432 31.24680201 38 31 C37.01 30.34 36.02 29.68 35 29 C34.34 29 33.68 29 33 29 C32.814375 28.05125 32.62875 27.1025 32.4375 26.125 C31.27440258 22.68147051 31.27440258 22.68147051 27.6875 21.5625 C24.30906838 21.04714602 22.22938069 21.02139979 19 22 C19 21.01 19 20.02 19 19 C19.66 19 20.32 19 21 19 C20.34 17.68 19.68 16.36 19 15 C18.01 15.495 18.01 15.495 17 16 C17 15.34 17 14.68 17 14 C16.4225 13.731875 15.845 13.46375 15.25 13.1875 C12.95743538 11.97753534 11.06373711 10.56343721 9 9 C5.74556009 6.71501719 5.74556009 6.71501719 2 6 C1.34 4.02 0.68 2.04 0 0 Z M63 48 C64 50 64 50 64 50 Z " fill="#3C60D1" transform="translate(651,186)"/>
<path d="M0 0 C0 0.33 0 0.66 0 1 C-5.66666667 1 -11.33333333 1 -17 1 C-16.67 0.01 -16.34 -0.98 -16 -2 C-18.64 -2 -21.28 -2 -24 -2 C-24 -2.66 -24 -3.32 -24 -4 C-31.98696098 -4.86494739 -39.98529415 -5.45721733 -48 -6 C-48 -5.34 -48 -4.68 -48 -4 C-51.04386724 -3.91773332 -53.07175348 -4.02391783 -56 -5 C-58.40383032 -4.75653872 -60.80023235 -4.43482615 -63.1875 -4.0625 C-64.45980469 -3.86785156 -65.73210937 -3.67320312 -67.04296875 -3.47265625 C-68.01878906 -3.31667969 -68.99460937 -3.16070312 -70 -3 C-70.33 -2.01 -70.66 -1.02 -71 0 C-73.08469701 1.2657089 -75.12416252 2.04138751 -77.4375 2.8125 C-81.55600467 4.72107534 -84.0729143 7.91445368 -86.98828125 11.328125 C-87.69339844 12.14796875 -88.39851563 12.9678125 -89.125 13.8125 C-89.78757812 14.60269531 -90.45015625 15.39289063 -91.1328125 16.20703125 C-93 18 -93 18 -96 18 C-92.74286479 10.94287371 -88.63275801 6.04856658 -82 2 C-81.34 2 -80.68 2 -80 2 C-80 1.01 -80 0.02 -80 -1 C-52.51064244 -12.45025705 -27.96502287 -7.26905962 0 0 Z " fill="#186EC5" transform="translate(96,238)"/>
<path d="M0 0 C1.81274414 0.01353516 1.81274414 0.01353516 3.66210938 0.02734375 C6.62911278 0.05079832 9.59570143 0.08362206 12.5625 0.125 C13.0575 1.115 13.0575 1.115 13.5625 2.125 C12.85867187 2.12910889 12.15484375 2.13321777 11.4296875 2.13745117 C-2.60195573 2.28056111 -15.41403423 2.52170347 -28.4375 8.125 C-29.42363281 8.54652344 -30.40976562 8.96804687 -31.42578125 9.40234375 C-38.34704985 12.77976619 -43.62216354 17.62461637 -49.1015625 22.9296875 C-51.4375 25.125 -51.4375 25.125 -52.4375 25.125 C-52.4375 18.195 -52.4375 11.265 -52.4375 4.125 C-51.4475 4.62 -51.4475 4.62 -50.4375 5.125 C-50.4375 8.755 -50.4375 12.385 -50.4375 16.125 C-49.1175 16.455 -47.7975 16.785 -46.4375 17.125 C-46.4375 14.485 -46.4375 11.845 -46.4375 9.125 C-43.4375 8.125 -43.4375 8.125 -41.0625 8.875 C-40.19625 8.9575 -39.33 9.04 -38.4375 9.125 C-36.72970027 7.50050757 -35.06199243 5.83279973 -33.4375 4.125 C-32.1175 4.125 -30.7975 4.125 -29.4375 4.125 C-29.1075 3.465 -28.7775 2.805 -28.4375 2.125 C-27.261875 2.16625 -26.08625 2.2075 -24.875 2.25 C-22.06099663 2.34873696 -20.2002824 2.04424507 -17.5 1.125 C-11.8325545 -0.59176148 -5.85883917 -0.0831041 0 0 Z " fill="#20137D" transform="translate(52.4375,207.875)"/>
<path d="M0 0 C-6.42617529 3.85570517 -11.82693535 6.13454672 -19.4375 6.5 C-24.30082721 6.81018943 -28.40232897 7.43483539 -33 9 C-34.33106622 9.34227417 -35.66400079 9.67751743 -37 10 C-38.051875 10.2784375 -38.051875 10.2784375 -39.125 10.5625 C-41 11 -41 11 -43 11 C-43.99 11.66 -44.98 12.32 -46 13 C-46.78375 12.835 -47.5675 12.67 -48.375 12.5 C-51.65520399 11.87519924 -52.94863715 12.72268532 -56 14 C-59.91981509 14.65330251 -63.74213259 14.98534227 -67.7109375 15.2109375 C-68.37432129 15.24888428 -69.03770508 15.28683105 -69.72119141 15.32592773 C-71.68341878 15.43383843 -73.64640248 15.52771348 -75.609375 15.62109375 C-78.65447267 15.96138692 -80.43782993 16.40187877 -83 18 C-83.33 17.01 -83.66 16.02 -84 15 C-76.63201306 13.32731517 -69.27368849 11.82069647 -61.8125 10.640625 C-61.10617432 10.52880386 -60.39984863 10.41698273 -59.67211914 10.30177307 C-58.20416029 10.07020441 -56.73614166 9.83901438 -55.26806641 9.60818481 C-41.07542999 7.36681004 -27.12075943 4.62902079 -13.19140625 1.09667969 C-12.03511719 0.80825195 -10.87882812 0.51982422 -9.6875 0.22265625 C-8.68074219 -0.03765381 -7.67398438 -0.29796387 -6.63671875 -0.56616211 C-4.00869953 -0.99856861 -2.48669507 -0.87159843 0 0 Z " fill="#2971D2" transform="translate(400,161)"/>
<path d="M0 0 C0 0.66 0 1.32 0 2 C-0.99 2.66 -1.98 3.32 -3 4 C0.79163027 6.52775351 3.80874031 6.22443035 8.1875 6.125 C9.31188477 6.11146484 9.31188477 6.11146484 10.45898438 6.09765625 C12.30612654 6.07412578 14.15310412 6.03825561 16 6 C16 6.33 16 6.66 16 7 C15.11183594 7.07476562 14.22367187 7.14953125 13.30859375 7.2265625 C0.33424295 8.5619649 -13.50497356 10.95748231 -25.55981445 16.08984375 C-28 17 -28 17 -32 17 C-32 16.34 -32 15.68 -32 15 C-30.39868164 13.82666016 -30.39868164 13.82666016 -28.16015625 12.5390625 C-27.34353516 12.06726563 -26.52691406 11.59546875 -25.68554688 11.109375 C-24.81994141 10.61953125 -23.95433594 10.1296875 -23.0625 9.625 C-22.23169922 9.14289063 -21.40089844 8.66078125 -20.54492188 8.1640625 C-6.29108993 0 -6.29108993 0 0 0 Z " fill="#7878E3" transform="translate(480,120)"/>
<path d="M0 0 C0.99 0.495 0.99 0.495 2 1 C-2.625 6.875 -2.625 6.875 -6 8 C-6.598125 7.814375 -7.19625 7.62875 -7.8125 7.4375 C-10.94012051 6.8119759 -13.02859625 7.93029465 -16 9 C-17.99369031 9.36920191 -19.99279077 9.71325582 -22 10 C-22 10.66 -22 11.32 -22 12 C-22.99 12 -23.98 12 -25 12 C-25.33 12.99 -25.66 13.98 -26 15 C-26.495 13.515 -26.495 13.515 -27 12 C-27.6297876 12.09087891 -28.2595752 12.18175781 -28.90844727 12.27539062 C-31.79243446 12.68863762 -34.67743163 13.09437291 -37.5625 13.5 C-38.55314453 13.64308594 -39.54378906 13.78617187 -40.56445312 13.93359375 C-53.29484332 15.70992727 -53.29484332 15.70992727 -57.91918945 14.49633789 C-60.13390585 13.9680593 -62.0542725 13.88610195 -64.328125 13.90234375 C-65.52695313 13.90717773 -65.52695313 13.90717773 -66.75 13.91210938 C-67.575 13.92048828 -68.4 13.92886719 -69.25 13.9375 C-70.09046875 13.94201172 -70.9309375 13.94652344 -71.796875 13.95117188 C-73.86461401 13.96292039 -75.93231624 13.98085478 -78 14 C-78.33 14.66 -78.66 15.32 -79 16 C-80.72526042 15.25130208 -82.45052083 14.50260417 -84.17578125 13.75390625 C-85.75711021 13.10038058 -87.37675406 12.54108198 -89 12 C-89 11.34 -89 10.68 -89 10 C-87.71319336 10.16153564 -86.42638672 10.32307129 -85.10058594 10.48950195 C-80.18544364 11.03318427 -75.33219342 11.16135501 -70.390625 11.16796875 C-69.5019574 11.17129715 -68.61328979 11.17462555 -67.69769287 11.17805481 C-65.82874056 11.18308504 -63.95977939 11.18546435 -62.09082031 11.18530273 C-59.27132942 11.1874835 -56.45223415 11.20566562 -53.6328125 11.22460938 C-40.40056926 11.26672912 -28.45319497 10.50195219 -15.8671875 6.01171875 C-12.30524282 4.75484726 -8.69555329 3.72618072 -5.05859375 2.7109375 C-2.73401337 2.00518503 -2.73401337 2.00518503 0 0 Z " fill="#225FC3" transform="translate(265,248)"/>
<path d="M0 0 C0.99 0 1.98 0 3 0 C2.979375 0.804375 2.95875 1.60875 2.9375 2.4375 C2.70366379 4.93354885 2.70366379 4.93354885 4 6 C6.33297433 6.04092937 8.66705225 6.04241723 11 6 C11 6.99 11 7.98 11 9 C13.64 8.67 16.28 8.34 19 8 C19 9.98 19 11.96 19 14 C26.54047904 15.07859862 26.54047904 15.07859862 34 14 C35.04449911 17.13349732 34.93423645 17.98968256 34 21 C24.50856454 21 17.15623508 16.3751365 9 12 C8.34 11.67 7.68 11.34 7 11 C7 10.34 7 9.68 7 9 C6.195625 8.9175 5.39125 8.835 4.5625 8.75 C0.04065795 7.79803325 -3.84702701 5.98419821 -8 4 C-7.67 3.34 -7.34 2.68 -7 2 C-5.00714063 1.62633887 -3.00636471 1.29259485 -1 1 C-0.67 0.67 -0.34 0.34 0 0 Z " fill="#2163BB" transform="translate(605,130)"/>
<path d="M0 0 C4.19469571 0.59924224 8.00999834 1.57499941 12 3 C12 3.66 12 4.32 12 5 C13.7325 5.37125 13.7325 5.37125 15.5 5.75 C20.06141704 6.87406348 23.86773557 8.78628691 28 11 C28 11.66 28 12.32 28 13 C28.680625 13.268125 29.36125 13.53625 30.0625 13.8125 C33.39710809 15.16053306 36.69743237 16.57536298 40 18 C40 18.99 40 19.98 40 21 C40.66 21.33 41.32 21.66 42 22 C40.68 21.67 39.36 21.34 38 21 C38 20.34 38 19.68 38 19 C36.35 19.99 34.7 20.98 33 22 C31.9375 20.125 31.9375 20.125 31 18 C31.33 17.34 31.66 16.68 32 16 C28.01939223 14.82923301 24.08378283 13.74250597 20 13 C20 12.01 20 11.02 20 10 C19.4225 10.144375 18.845 10.28875 18.25 10.4375 C16.16666667 10.95833333 14.08333333 11.47916667 12 12 C12 11.071875 12 10.14375 12 9.1875 C11.38827377 5.9525108 11.38827377 5.9525108 9.2578125 5.0390625 C7.85541694 4.56132335 6.43769104 4.12608964 5.0078125 3.73828125 C2.71668326 2.89582322 1.59337198 1.81884914 0 0 Z M28 18 C28.99 18.33 29.98 18.66 31 19 C30.67 19.99 30.34 20.98 30 22 C29.34 21.67 28.68 21.34 28 21 C28 20.01 28 19.02 28 18 Z " fill="#2B79DD" transform="translate(564,138)"/>
<path d="M0 0 C0.495 1.485 0.495 1.485 1 3 C-1.38314889 4.45636876 -3.69534069 5.86459586 -6.25 7 C-8.35137474 7.94279946 -8.35137474 7.94279946 -9 11 C-10.9609375 11.625 -10.9609375 11.625 -13.375 12 C-16.84438633 12.49161547 -16.84438633 12.49161547 -19.5390625 14.5625 C-21 16 -21 16 -25 16 C-25 17.32 -25 18.64 -25 20 C-26.2684375 19.690625 -26.2684375 19.690625 -27.5625 19.375 C-31.5398227 18.94111025 -34.20423829 19.85410967 -38 21 C-38.99 20.67 -39.98 20.34 -41 20 C-38.5140682 17.5140682 -36.69698577 17.23251397 -33.3125 16.3125 C-27.17986929 14.51240862 -21.5819427 12.10164783 -15.85083008 9.28637695 C-11.17650096 7 -11.17650096 7 -9 7 C-9 6.34 -9 5.68 -9 5 C-6.03 3.35 -3.06 1.7 0 0 Z " fill="#2278D5" transform="translate(441,140)"/>
<path d="M0 0 C1.24571777 0.0012085 1.24571777 0.0012085 2.51660156 0.00244141 C11.57001757 0.09209659 20.12216071 1.44227841 28.75 4.1875 C28.75 4.8475 28.75 5.5075 28.75 6.1875 C25.14252114 5.76309072 21.56473128 5.33867535 17.9921875 4.67578125 C3.75043894 2.10789564 -10.32045436 2.04300529 -24.25 6.1875 C-25.02472656 6.40019531 -25.79945312 6.61289063 -26.59765625 6.83203125 C-28.15456375 7.2622701 -29.70385421 7.72006057 -31.25 8.1875 C-28.85977015 4.60215522 -27.63938996 4.3532026 -23.625 3.0625 C-22.62210938 2.72992188 -21.61921875 2.39734375 -20.5859375 2.0546875 C-13.75734159 0.2795724 -7.01641659 -0.00713921 0 0 Z " fill="#1394D2" transform="translate(51.25,227.8125)"/>
<path d="M0 0 C0.33 0 0.66 0 1 0 C1.86186258 10.59133349 1.86186258 10.59133349 -1.25 14.75 C-1.71019531 15.29140625 -2.17039062 15.8328125 -2.64453125 16.390625 C-4.01903102 18.02259591 -4.94890053 19.61456978 -5.9375 21.5 C-10.46686194 29.47096373 -16.2742975 34.73115677 -25 38 C-27.3359375 37.65625 -27.3359375 37.65625 -29 37 C-28.45472656 36.731875 -27.90945313 36.46375 -27.34765625 36.1875 C-13.62187514 29.0547864 -6.07062962 19.38333693 -1.47167969 4.87670898 C-0.97186275 3.2539617 -0.48456506 1.62736672 0 0 Z " fill="#2269C6" transform="translate(285,214)"/>
<path d="M0 0 C15.75 0.75 15.75 0.75 21 6 C23.41265291 6.741457 23.41265291 6.741457 26.2265625 7.2890625 C27.2578125 7.50820312 28.2890625 7.72734375 29.3515625 7.953125 C30.43179688 8.17484375 31.51203125 8.3965625 32.625 8.625 C33.71296875 8.85445312 34.8009375 9.08390625 35.921875 9.3203125 C38.61325291 9.88691837 41.30590066 10.4465046 44 11 C44 11.33 44 11.66 44 12 C35.92224151 12.47241023 28.75028527 11.08617786 20.9375 9.125 C19.79861328 8.85558594 18.65972656 8.58617187 17.48632812 8.30859375 C11.29133246 6.79220675 11.29133246 6.79220675 9 6 C8.67 5.34 8.34 4.68 8 4 C5.88153715 3.31270746 5.88153715 3.31270746 3.4375 2.875 C2.61121094 2.70742187 1.78492187 2.53984375 0.93359375 2.3671875 C0.29550781 2.24601563 -0.34257813 2.12484375 -1 2 C-0.67 1.34 -0.34 0.68 0 0 Z " fill="#1C1B80" transform="translate(99,216)"/>
<path d="M0 0 C2.97 0.33 5.94 0.66 9 1 C9 1.66 9 2.32 9 3 C9.8971875 2.6596875 9.8971875 2.6596875 10.8125 2.3125 C11.8953125 2.1578125 11.8953125 2.1578125 13 2 C13.61875 2.7115625 13.61875 2.7115625 14.25 3.4375 C17.14142532 6.01912975 20.23648185 5.18509106 24 5 C23.67 6.65 23.34 8.3 23 10 C25.97 10.495 25.97 10.495 29 11 C29.33 12.32 29.66 13.64 30 15 C30.99 15 31.98 15 33 15 C33 15.66 33 16.32 33 17 C33.639375 17.12375 34.27875 17.2475 34.9375 17.375 C35.9584375 17.684375 35.9584375 17.684375 37 18 C37.495 18.99 37.495 18.99 38 20 C34.21849073 19.00486598 31.10820183 17.5432197 27.8125 15.5 C21.87857796 11.8231526 15.70608087 8.63965182 9.51293945 5.42773438 C8.715896 5.01330078 7.91885254 4.59886719 7.09765625 4.171875 C6.38101807 3.8015918 5.66437988 3.43130859 4.92602539 3.04980469 C3 2 3 2 0 0 Z " fill="#3C61C6" transform="translate(632,150)"/>
<path d="M0 0 C4.10057281 0.47840016 7.99860599 0.9996515 12 2 C13.32 2 14.64 2 16 2 C16.33 3.32 16.66 4.64 17 6 C17.33 5.34 17.66 4.68 18 4 C18.66 4 19.32 4 20 4 C20.268125 4.639375 20.53625 5.27875 20.8125 5.9375 C21.88667752 8.33131686 21.88667752 8.33131686 25 9 C25 9.66 25 10.32 25 11 C26.65 11 28.3 11 30 11 C30 11.66 30 12.32 30 13 C31.98 13.66 33.96 14.32 36 15 C36 15.99 36 16.98 36 18 C34.68 17.67 33.36 17.34 32 17 C32 16.34 32 15.68 32 15 C31.46890625 14.88785156 30.9378125 14.77570313 30.390625 14.66015625 C27.38949642 13.83141323 24.61591837 12.65240018 21.75 11.4375 C20.67234375 10.98246094 19.5946875 10.52742187 18.484375 10.05859375 C17.66453125 9.70925781 16.8446875 9.35992187 16 9 C16 8.34 16 7.68 16 7 C10.06 5.515 10.06 5.515 4 4 C4 3.34 4 2.68 4 2 C2.68 2 1.36 2 0 2 C0 1.34 0 0.68 0 0 Z " fill="#8B70F0" transform="translate(560,134)"/>
<path d="M0 0 C0 0.99 0 1.98 0 3 C-2.21576266 3.71220943 -3.57701205 4.12072595 -5.84765625 3.47265625 C-8.43561441 2.90433876 -10.12364029 3.25628344 -12.6875 3.875 C-13.47511719 4.05804688 -14.26273438 4.24109375 -15.07421875 4.4296875 C-16.98930149 4.8302304 -16.98930149 4.8302304 -18 6 C-19.44289787 6.09295815 -20.89029785 6.11746513 -22.33618164 6.11352539 C-23.71750023 6.11341209 -23.71750023 6.11341209 -25.12672424 6.11329651 C-26.12775681 6.10813522 -27.12878937 6.10297394 -28.16015625 6.09765625 C-29.17975937 6.0962413 -30.19936249 6.09482635 -31.24986267 6.09336853 C-34.52077107 6.08775097 -37.79161213 6.0751955 -41.0625 6.0625 C-43.27408756 6.05748726 -45.48567618 6.05292396 -47.69726562 6.04882812 C-53.13153357 6.03777584 -58.56576197 6.02102063 -64 6 C-64 5.34 -64 4.68 -64 4 C-63.01829834 4.01047363 -62.03659668 4.02094727 -61.02514648 4.03173828 C-57.30692337 4.06853447 -53.58871551 4.09111213 -49.87036133 4.10986328 C-48.27528152 4.11978751 -46.68021923 4.13333127 -45.08520508 4.15087891 C-29.80004526 4.31456251 -14.78255195 -0.50974317 0 0 Z " fill="#2591CE" transform="translate(256,235)"/>
<path d="M0 0 C0 0.66 0 1.32 0 2 C1.32 2 2.64 2 4 2 C4 2.66 4 3.32 4 4 C4.66 4 5.32 4 6 4 C6 3.01 6 2.02 6 1 C6.66 1 7.32 1 8 1 C8 2.65 8 4.3 8 6 C9.32 6 10.64 6 12 6 C12 6.66 12 7.32 12 8 C14.475 8.495 14.475 8.495 17 9 C17 9.66 17 10.32 17 11 C18.32 10.67 19.64 10.34 21 10 C21 10.99 21 11.98 21 13 C16.4299823 12.28593474 12.29687122 10.64121881 8 9 C6.57329013 8.46384891 5.14620902 7.92868459 3.71875 7.39453125 C-0.1875 5.9296875 -4.09375 4.46484375 -8 3 C-8 2.34 -8 1.68 -8 1 C-5.23735711 0.40267181 -2.83967231 0 0 0 Z " fill="#245CB7" transform="translate(576,120)"/>
<path d="M0 0 C1.32 0 2.64 0 4 0 C4 0.66 4 1.32 4 2 C4.62648438 2.20496094 5.25296875 2.40992188 5.8984375 2.62109375 C6.71570313 2.89050781 7.53296875 3.15992188 8.375 3.4375 C9.18710937 3.70433594 9.99921875 3.97117188 10.8359375 4.24609375 C13 5 13 5 15 6 C15 6.66 15 7.32 15 8 C15.99 8 16.98 8 18 8 C18.33 8.66 18.66 9.32 19 10 C19.928125 10.28875 20.85625 10.5775 21.8125 10.875 C25.26311831 12.09286529 26.50292849 13.4223778 29 16 C31.63222962 17.25436187 31.63222962 17.25436187 34 18 C34 18.99 34 19.98 34 21 C28.7671361 19.7606375 25.20460138 17.11187539 20.9375 14.015625 C14.94411782 9.90314467 8.50123675 6.25061837 2 3 C2 2.34 2 1.68 2 1 C1.34 0.67 0.68 0.34 0 0 Z " fill="#2C68C4" transform="translate(702,188)"/>
<path d="M0 0 C-0.33 0.66 -0.66 1.32 -1 2 C-3.19969345 2.65651003 -5.43361355 3.19912511 -7.67578125 3.69140625 C-8.35617966 3.841577 -9.03657806 3.99174774 -9.7375946 4.14646912 C-11.18686993 4.46402689 -12.63708968 4.77729948 -14.08813477 5.08666992 C-16.26795251 5.55297052 -18.44351384 6.03605494 -20.61914062 6.52148438 C-28.73645192 8.29894434 -36.67569828 9.60018625 -45 10 C-44.67 9.34 -44.34 8.68 -44 8 C-41.7436493 7.57967076 -39.46755046 7.26299243 -37.1875 7 C-32.94490338 6.507595 -29.74788275 5.99836807 -26 4 C-17.52707645 1.6576177 -8.83336839 -0.27604276 0 0 Z " fill="#1340A3" transform="translate(389,161)"/>
<path d="M0 0 C0.99 0.33 1.98 0.66 3 1 C3 1.66 3 2.32 3 3 C2.01 3.33 1.02 3.66 0 4 C1.98 4 3.96 4 6 4 C6 3.34 6 2.68 6 2 C7.65 1.67 9.3 1.34 11 1 C11.33 1.66 11.66 2.32 12 3 C12.33 2.34 12.66 1.68 13 1 C13.99 1.33 14.98 1.66 16 2 C14.875 3.9375 14.875 3.9375 13 6 C8.39228349 7.09707536 3.83480726 7.12182897 -0.875 7.0625 C-1.90753906 7.05573242 -1.90753906 7.05573242 -2.9609375 7.04882812 C-4.64066335 7.03716336 -6.32034375 7.01923271 -8 7 C-7.1953125 5.046875 -7.1953125 5.046875 -6 3 C-2.875 2.25 -2.875 2.25 0 2 C0 1.34 0 0.68 0 0 Z " fill="#20268D" transform="translate(229,232)"/>
<path d="M0 0 C0.68384766 0.07831055 1.36769531 0.15662109 2.07226562 0.23730469 C6.87488545 0.87488545 6.87488545 0.87488545 9.125 3.125 C8.32320312 3.0528125 7.52140625 2.980625 6.6953125 2.90625 C-14.91555303 0.54523936 -14.91555303 0.54523936 -35.6875 4.75 C-39.04780159 6.19954186 -39.61135123 6.18692476 -42.875 5.125 C-28.23087024 -1.0567433 -15.63802341 -1.84605655 0 0 Z " fill="#1F8DCA" transform="translate(64.875,210.875)"/>
<path d="M0 0 C0.99 0.495 0.99 0.495 2 1 C2 4.63 2 8.26 2 12 C7.20225263 12.08122304 7.20225263 12.08122304 10.8125 9.25 C14.54427318 6.27447631 18.41111695 3.47536151 23 2 C23.99 2.33 24.98 2.66 26 3 C25.20078125 3.37769531 24.4015625 3.75539062 23.578125 4.14453125 C15.67148132 8.10713319 9.58670383 12.66654441 3.265625 18.83984375 C1 21 1 21 0 21 C0 14.07 0 7.14 0 0 Z " fill="#121C7D" transform="translate(0,212)"/>
<path d="M0 0 C0.928125 0.165 1.85625 0.33 2.8125 0.5 C7.85733621 1.23700282 12.91435711 1.08276815 18 1 C14.62557956 2.98543382 11.68190358 3.39970313 7.8125 3.8125 C1.14572385 4.66685577 -5.01843972 6.32417545 -11.40112305 8.41137695 C-16.69919906 10.10026698 -16.69919906 10.10026698 -20 9 C-18.8125 7.4375 -18.8125 7.4375 -17 6 C-14.3125 6.3125 -14.3125 6.3125 -12 7 C-12 6.34 -12 5.68 -12 5 C-8.14243493 2.84694043 -5.44870215 1.60746746 -1 2 C-0.67 1.34 -0.34 0.68 0 0 Z " fill="#214EAC" transform="translate(490,112)"/>
<path d="M0 0 C1.29091553 0.1539624 2.58183105 0.3079248 3.91186523 0.46655273 C8.74058031 1.00197675 13.55862793 1.30307541 18.41015625 1.53515625 C19.26306747 1.57813339 20.1159787 1.62111053 20.99473572 1.66539001 C23.68387051 1.80031192 26.37317295 1.93147222 29.0625 2.0625 C30.9004031 2.15404679 32.73829387 2.2458414 34.57617188 2.33789062 C39.05064402 2.56145581 43.52527042 2.78165074 48 3 C48 3.33 48 3.66 48 4 C45.58373582 4.19534474 43.16734771 4.38153404 40.75 4.5625 C40.06808594 4.61857422 39.38617188 4.67464844 38.68359375 4.73242188 C35.17154915 4.98815328 32.37859078 4.85030562 29 4 C27.55901569 3.92233916 26.11491371 3.89203633 24.671875 3.90234375 C23.47304687 3.90717773 23.47304687 3.90717773 22.25 3.91210938 C21.425 3.92048828 20.6 3.92886719 19.75 3.9375 C18.90953125 3.94201172 18.0690625 3.94652344 17.203125 3.95117188 C15.13538599 3.96292039 13.06768376 3.98085478 11 4 C10.67 4.66 10.34 5.32 10 6 C8.27473958 5.25130208 6.54947917 4.50260417 4.82421875 3.75390625 C3.24288979 3.10038058 1.62324594 2.54108198 0 2 C0 1.34 0 0.68 0 0 Z " fill="#2D56C6" transform="translate(176,258)"/>
<path d="M0 0 C5.05255964 0.63156995 9.29593201 2.13459373 14 4 C14 4.66 14 5.32 14 6 C15.258125 6.37125 16.51625 6.7425 17.8125 7.125 C23.59772767 9.03191422 28.74199902 11.96313588 34 15 C34 15.33 34 15.66 34 16 C29.12335991 16.34833144 26.22949995 15.41685712 22 13 C22 12.01 22 11.02 22 10 C21.278125 9.87625 20.55625 9.7525 19.8125 9.625 C17.04278106 9.0095069 14.6029646 8.11555626 12 7 C12 6.34 12 5.68 12 5 C8.7 5 5.4 5 2 5 C1.34 3.35 0.68 1.7 0 0 Z " fill="#A66EF1" transform="translate(598,135)"/>
<path d="M0 0 C5.18136251 0.58147555 9.30251061 3.06194719 13.8125 5.5 C14.64112549 5.9419873 15.46975098 6.38397461 16.32348633 6.83935547 C24.28343842 11.10521552 32.15789652 15.5218885 40 20 C39.01 20.33 38.02 20.66 37 21 C35.27297587 20.07006393 33.55061191 19.12761983 31.87890625 18.1015625 C29.66094875 16.80122151 27.33114166 15.88943066 24.95703125 14.9140625 C19.85916814 12.53302464 15.13485708 9.33547523 10.37109375 6.35546875 C7.88030435 4.93157432 5.8237906 4.40339866 3 4 C3 3.34 3 2.68 3 2 C2.01 1.67 1.02 1.34 0 1 C0 0.67 0 0.34 0 0 Z " fill="#AE6DF6" transform="translate(632,151)"/>
<path d="M0 0 C0.66 0.33 1.32 0.66 2 1 C0.35 1.66 -1.3 2.32 -3 3 C-3 3.66 -3 4.32 -3 5 C-2.01 4.67 -1.02 4.34 0 4 C1.39439664 3.93334624 2.79169875 3.91461801 4.1875 3.9375 C6.0746875 3.9684375 6.0746875 3.9684375 8 4 C4.20347103 6.11577396 0.12936994 7.33831227 -4 8.625 C-4.7115625 8.85445312 -5.423125 9.08390625 -6.15625 9.3203125 C-9.6281219 10.40851115 -12.32748565 11 -16 11 C-16 10.34 -16 9.68 -16 9 C-13.38029207 7.46935061 -10.75498357 5.95030252 -8.125 4.4375 C-7.37863281 3.99986328 -6.63226563 3.56222656 -5.86328125 3.11132812 C-5.14785156 2.70205078 -4.43242187 2.29277344 -3.6953125 1.87109375 C-3.03547363 1.48880615 -2.37563477 1.10651855 -1.69580078 0.71264648 C-1.13618652 0.47747314 -0.57657227 0.2422998 0 0 Z " fill="#657FE6" transform="translate(464,126)"/>
<path d="M0 0 C7.02952752 0.4535179 12.5849443 2.12059087 19 5 C19 5.66 19 6.32 19 7 C20.32 7 21.64 7 23 7 C21.87548273 9.9719385 20.77706209 12.33440687 19 15 C18.01 14.67 17.02 14.34 16 14 C15.67 13.01 15.34 12.02 15 11 C16.32 11 17.64 11 19 11 C18.35396505 7.93681225 18.35396505 7.93681225 16.23413086 7.0168457 C15.48526611 6.73929443 14.73640137 6.46174316 13.96484375 6.17578125 C13.15595703 5.86962891 12.34707031 5.56347656 11.51367188 5.24804688 C10.66353516 4.93931641 9.81339844 4.63058594 8.9375 4.3125 C8.08349609 3.99216797 7.22949219 3.67183594 6.34960938 3.34179688 C4.23665649 2.55091507 2.12031487 1.7708798 0 1 C0 0.67 0 0.34 0 0 Z " fill="#1E83E0" transform="translate(541,129)"/>
<path d="M0 0 C0.99 0.33 1.98 0.66 3 1 C2.34 1 1.68 1 1 1 C0.93554688 1.59554687 0.87109375 2.19109375 0.8046875 2.8046875 C-0.33035132 5.90124971 -2.02819296 6.54894161 -4.875 8.125 C-5.75929688 8.62257812 -6.64359375 9.12015625 -7.5546875 9.6328125 C-8.36164062 10.08398438 -9.16859375 10.53515625 -10 11 C-10.99 11.66 -11.98 12.32 -13 13 C-13 10.36 -13 7.72 -13 5 C-10 4 -10 4 -7.625 4.75 C-6.75875 4.8325 -5.8925 4.915 -5 5 C-2.16588845 2.666508 -2.16588845 2.666508 0 0 Z " fill="#34067D" transform="translate(19,212)"/>
<path d="M0 0 C2.31 0 4.62 0 7 0 C7.33 0.66 7.66 1.32 8 2 C8.99 2.33 9.98 2.66 11 3 C11 3.66 11 4.32 11 5 C12.65 5 14.3 5 16 5 C16 5.66 16 6.32 16 7 C16.804375 7.268125 17.60875 7.53625 18.4375 7.8125 C19.283125 8.204375 20.12875 8.59625 21 9 C21.33 9.99 21.66 10.98 22 12 C16.89764402 10.65727474 12.85578781 8.20905168 8.4140625 5.46484375 C5.67176767 3.8008299 2.89662317 2.37208466 0 1 C0 0.67 0 0.34 0 0 Z " fill="#976DF2" transform="translate(596,152)"/>
<path d="M0 0 C10.82873964 0.50720092 21.39945425 2.87575751 32 5 C32 5.33 32 5.66 32 6 C24.50122022 6.29862397 17.33161007 5.6547456 10 4 C9.67 3.67 9.34 3.34 9 3 C7.48530552 2.76807135 5.96245438 2.58784762 4.4375 2.4375 C3.61121094 2.35371094 2.78492188 2.26992187 1.93359375 2.18359375 C1.29550781 2.12300781 0.65742188 2.06242188 0 2 C0 1.34 0 0.68 0 0 Z " fill="#1B8DC8" transform="translate(144,231)"/>
<path d="M0 0 C5.66319639 0.49490322 11.0103241 1.62400159 16.5 3.0625 C17.59054688 3.3419043 17.59054688 3.3419043 18.703125 3.62695312 C20.46987724 4.08026455 22.23510775 4.5395002 24 5 C24 5.33 24 5.66 24 6 C16.25 6.125 16.25 6.125 14 5 C11.62876754 4.76970044 9.25258057 4.58880058 6.875 4.4375 C5.59367187 4.35371094 4.31234375 4.26992187 2.9921875 4.18359375 C1.51105469 4.09271484 1.51105469 4.09271484 0 4 C-0.33 3.01 -0.66 2.02 -1 1 C-0.67 0.67 -0.34 0.34 0 0 Z " fill="#1C92CB" transform="translate(88,217)"/>
<path d="M0 0 C3.465 1.485 3.465 1.485 7 3 C7 3.66 7 4.32 7 5 C8.36125 5.37125 8.36125 5.37125 9.75 5.75 C13.14553141 7.05597362 14.63817563 8.30077215 17 11 C17.66 11.66 18.32 12.32 19 13 C13.13552118 11.64665873 9.23618715 10.38226257 5 6 C4.01 6 3.02 6 2 6 C1.34 4.02 0.68 2.04 0 0 Z " fill="#4862D6" transform="translate(651,186)"/>
<path d="M0 0 C5.8888434 -0.21221057 10.83290313 0.44679567 16.5 2 C17.59054688 2.28617188 17.59054688 2.28617188 18.703125 2.578125 C20.47106531 3.04337245 22.23588933 3.52043593 24 4 C24 4.33 24 4.66 24 5 C18.33333333 5 12.66666667 5 7 5 C7.33 4.01 7.66 3.02 8 2 C5.36 2 2.72 2 0 2 C0 1.34 0 0.68 0 0 Z " fill="#2364C7" transform="translate(72,234)"/>
<path d="M0 0 C-5.18051071 2.33980682 -10.35238184 4.12002462 -15.8125 5.6875 C-16.9562207 6.02491211 -16.9562207 6.02491211 -18.12304688 6.36914062 C-23.72943579 8 -23.72943579 8 -26 8 C-26 7.34 -26 6.68 -26 6 C-25.37351562 5.97421875 -24.74703125 5.9484375 -24.1015625 5.921875 C-23.28429687 5.86515625 -22.46703125 5.8084375 -21.625 5.75 C-20.81289063 5.70359375 -20.00078125 5.6571875 -19.1640625 5.609375 C-16.81161073 5.2077908 -16.81161073 5.2077908 -15.7109375 2.953125 C-15.47632813 2.30859375 -15.24171875 1.6640625 -15 1 C-13.35 1.33 -11.7 1.66 -10 2 C-9.67 1.34 -9.34 0.68 -9 0 C-5.44307323 -0.85056945 -3.50729422 -1.16909807 0 0 Z " fill="#1146A6" transform="translate(416,154)"/>
<path d="M0 0 C7.75 -0.125 7.75 -0.125 10 1 C11.80870138 1.20379734 13.62236592 1.36500995 15.4375 1.5 C18.56308718 1.73306642 21.01424829 2.00474943 24 3 C24 3.66 24 4.32 24 5 C18.1111566 5.21221057 13.16709687 4.55320433 7.5 3 C6.40945312 2.71382812 6.40945312 2.71382812 5.296875 2.421875 C3.52893469 1.95662755 1.76411067 1.47956407 0 1 C0 0.67 0 0.34 0 0 Z " fill="#148FCE" transform="translate(80,234)"/>
<path d="M0 0 C0 0.66 0 1.32 0 2 C-0.59167969 2.29132813 -1.18335937 2.58265625 -1.79296875 2.8828125 C-7.14428872 5.6588643 -10.37999318 8.20881451 -14 13 C-14.99 13.66 -15.98 14.32 -17 15 C-17.99 14.67 -18.98 14.34 -20 14 C-15.40401512 8.83932073 -7.31506816 0 0 0 Z " fill="#2087C6" transform="translate(22,217)"/>
<path d="M0 0 C0.66 0.33 1.32 0.66 2 1 C1.67 1.66 1.34 2.32 1 3 C2.32 2.34 3.64 1.68 5 1 C5.33 1.99 5.66 2.98 6 4 C9.51190809 5.22969878 9.51190809 5.22969878 13 6 C13 6.33 13 6.66 13 7 C2.44191344 7.3690205 2.44191344 7.3690205 -2 5 C-1.34 3.35 -0.68 1.7 0 0 Z " fill="#21147D" transform="translate(80,209)"/>
<path d="M0 0 C1.98 0.66 3.96 1.32 6 2 C6 2.66 6 3.32 6 4 C6.99 4 7.98 4 9 4 C9 4.66 9 5.32 9 6 C10.918125 6.2784375 10.918125 6.2784375 12.875 6.5625 C13.59429688 6.66691406 14.31359375 6.77132812 15.0546875 6.87890625 C17.08140667 7.1684297 17.08140667 7.1684297 19 6 C18.67 7.65 18.34 9.3 18 11 C16.53890937 10.74445946 15.08111904 10.46999628 13.625 10.1875 C12.40683594 9.96126953 12.40683594 9.96126953 11.1640625 9.73046875 C9 9 9 9 7 6 C6.01 5.67 5.02 5.34 4 5 C4 4.34 4 3.68 4 3 C3.01 3 2.02 3 1 3 C0.67 2.01 0.34 1.02 0 0 Z " fill="#1A6CC3" transform="translate(661,162)"/>
<path d="M0 0 C15.75 0.75 15.75 0.75 21 6 C18.47425277 6 16.07209041 5.87045741 13.5625 5.625 C12.41974609 5.52058594 12.41974609 5.52058594 11.25390625 5.4140625 C8.85458542 4.97328606 7.15163565 4.1218304 5 3 C3.00889599 2.61709538 1.00899487 2.27395385 -1 2 C-0.67 1.34 -0.34 0.68 0 0 Z " fill="#2F0A80" transform="translate(99,216)"/>
<path d="M0 0 C2 3 2 3 1.625 5.1875 C1.41875 5.785625 1.2125 6.38375 1 7 C-1.31 6.67 -3.62 6.34 -6 6 C-6 5.34 -6 4.68 -6 4 C-7.32 3.67 -8.64 3.34 -10 3 C-6.99382731 -0.00617269 -4.17618402 0.40414684 0 0 Z " fill="#0B6BBA" transform="translate(638,144)"/>
<path d="M0 0 C3.96 0 7.92 0 12 0 C8.53258866 2.95749791 5.13126473 5.07848152 1 7 C0 2.25 0 2.25 0 0 Z " fill="#1C4AA6" transform="translate(448,128)"/>
<path d="M0 0 C0 0.66 0 1.32 0 2 C1.65 2.33 3.3 2.66 5 3 C5 3.66 5 4.32 5 5 C6.32 4.67 7.64 4.34 9 4 C9 4.99 9 5.98 9 7 C5.10858371 6.3919662 1.65575084 5.17924226 -1.99609375 3.765625 C-4.63609073 2.75697118 -7.31268506 1.87337736 -10 1 C-6.42181037 -1.33958553 -4.07775191 -0.9267618 0 0 Z " fill="#295DBA" transform="translate(588,126)"/>
<path d="M0 0 C2.97 0 5.94 0 9 0 C9.33 0.66 9.66 1.32 10 2 C13.02934491 2.65772428 13.02934491 2.65772428 16 3 C16 3.33 16 3.66 16 4 C9.73 3.67 3.46 3.34 -3 3 C-2.01 2.67 -1.02 2.34 0 2 C0 1.34 0 0.68 0 0 Z " fill="#311887" transform="translate(192,234)"/>
<path d="M0 0 C7.42857143 1 7.42857143 1 11 2 C11.33 3.32 11.66 4.64 12 6 C12.99 6 13.98 6 15 6 C15 6.66 15 7.32 15 8 C15.639375 8.12375 16.27875 8.2475 16.9375 8.375 C17.618125 8.58125 18.29875 8.7875 19 9 C19.33 9.66 19.66 10.32 20 11 C12.55826439 9.04164852 6.03996772 4.66218707 0 0 Z " fill="#3B63C8" transform="translate(650,159)"/>
<path d="M0 0 C0 0.66 0 1.32 0 2 C-2.09836004 3.03271642 -4.20390891 4.05083717 -6.3125 5.0625 C-7.48425781 5.63097656 -8.65601563 6.19945312 -9.86328125 6.78515625 C-13 8 -13 8 -16 7 C-15.01 6.67 -14.02 6.34 -13 6 C-12.67 5.34 -12.34 4.68 -12 4 C-10.29296875 2.9296875 -10.29296875 2.9296875 -8.1875 1.875 C-7.50042969 1.52179688 -6.81335938 1.16859375 -6.10546875 0.8046875 C-4 0 -4 0 0 0 Z " fill="#0F4BAA" transform="translate(432,145)"/>
<path d="M0 0 C0 0.66 0 1.32 0 2 C0.66 2.33 1.32 2.66 2 3 C-3.94 3.495 -3.94 3.495 -10 4 C-10 2.68 -10 1.36 -10 0 C-6.30458414 -0.95024979 -3.69541586 -0.95024979 0 0 Z " fill="#BB63F2" transform="translate(610,140)"/>
<path d="M0 0 C0.33 0 0.66 0 1 0 C0.53727528 7.28791429 -0.6307176 14.6307176 -6 20 C-6.1875 17.1875 -6.1875 17.1875 -6 14 C-5 13 -4 12 -3 11 C-2.61936779 8.6739143 -2.28730055 6.33944736 -2 4 C-0.9375 1.5625 -0.9375 1.5625 0 0 Z " fill="#123191" transform="translate(285,196)"/>
<path d="M0 0 C5.05255964 0.63156995 9.29593201 2.13459373 14 4 C14 4.66 14 5.32 14 6 C14.66 6.33 15.32 6.66 16 7 C14.68 7 13.36 7 12 7 C12 6.34 12 5.68 12 5 C8.7 5 5.4 5 2 5 C1.34 3.35 0.68 1.7 0 0 Z " fill="#9D6AEB" transform="translate(598,135)"/>
<path d="M0 0 C1.32 0.33 2.64 0.66 4 1 C2.58833114 1.98635837 1.17043816 2.96381255 -0.25 3.9375 C-1.43335938 4.75541016 -1.43335938 4.75541016 -2.640625 5.58984375 C-4.82636993 6.89622441 -6.5153801 7.54980511 -9 8 C-8.67 6.35 -8.34 4.7 -8 3 C-6.865625 2.87625 -5.73125 2.7525 -4.5625 2.625 C-3.386875 2.41875 -2.21125 2.2125 -1 2 C-0.67 1.34 -0.34 0.68 0 0 Z " fill="#104BAA" transform="translate(441,137)"/>
<path d="M0 0 C3.4375 0.8125 3.4375 0.8125 7 2 C7.33 2.99 7.66 3.98 8 5 C7.01 5.33 6.02 5.66 5 6 C4.67 6.66 4.34 7.32 4 8 C2.68 8 1.36 8 0 8 C0 7.34 0 6.68 0 6 C0.66 6 1.32 6 2 6 C1.34 5.01 0.68 4.02 0 3 C0 2.01 0 1.02 0 0 Z M2 2 C3 4 3 4 3 4 Z " fill="#335CCD" transform="translate(712,232)"/>
<path d="M0 0 C0.99 0 1.98 0 3 0 C3 0.66 3 1.32 3 2 C4.65 1.34 6.3 0.68 8 0 C8.33 0.66 8.66 1.32 9 2 C10.98 2 12.96 2 15 2 C15 2.66 15 3.32 15 4 C15.66 4.33 16.32 4.66 17 5 C12.05 4.67 7.1 4.34 2 4 C2 3.34 2 2.68 2 2 C1.34 2 0.68 2 0 2 C0 1.34 0 0.68 0 0 Z " fill="#261885" transform="translate(170,232)"/>
<path d="M0 0 C0 0.33 0 0.66 0 1 C-2.5 1.3125 -5 1.625 -7.5 1.9375 C-8.19609375 2.02451172 -8.8921875 2.11152344 -9.609375 2.20117188 C-12.51171875 2.56396484 -15.4140625 2.92675781 -18.31640625 3.28955078 C-19.04730469 3.38091309 -19.77820313 3.47227539 -20.53125 3.56640625 C-22.24828125 3.78103516 -22.24828125 3.78103516 -24 4 C-24 3.34 -24 2.68 -24 2 C-15.92437827 0.56205146 -8.2056037 -0.29599372 0 0 Z " fill="#687FEB" transform="translate(496,126)"/>
<path d="M0 0 C0.99 0.495 0.99 0.495 2 1 C2 4.63 2 8.26 2 12 C3.32 12.66 4.64 13.32 6 14 C4.6875 15.5 4.6875 15.5 3 17 C2.01 17 1.02 17 0 17 C0 11.39 0 5.78 0 0 Z " fill="#360A83" transform="translate(0,212)"/>
<path d="M0 0 C7.26842758 -0.29667051 13.51450217 0.36812122 20 4 C15.60155678 5.37344385 12.07495445 4.24307502 7.75 3.0625 C7.00492187 2.86720703 6.25984375 2.67191406 5.4921875 2.47070312 C3.65920614 1.98895802 1.82928182 1.49560775 0 1 C0 0.67 0 0.34 0 0 Z " fill="#132483" transform="translate(88,216)"/>
<path d="M0 0 C-0.99 0.495 -0.99 0.495 -2 1 C-1.67 2.32 -1.34 3.64 -1 5 C-3.31 4.67 -5.62 4.34 -8 4 C-8.33 3.01 -8.66 2.02 -9 1 C-3.375 -1.125 -3.375 -1.125 0 0 Z " fill="#281183" transform="translate(153,226)"/>
<path d="M0 0 C2.31 0.33 4.62 0.66 7 1 C7 1.66 7 2.32 7 3 C8.98 2.67 10.96 2.34 13 2 C13 3.32 13 4.64 13 6 C12.01 6.33 11.02 6.66 10 7 C6.2898821 5.14494105 3.18483911 2.63886669 0 0 Z " fill="#BA62F9" transform="translate(682,207)"/>
<path d="M0 0 C8.57142857 0.85714286 8.57142857 0.85714286 12 3 C12 3.66 12 4.32 12 5 C12.66 5.33 13.32 5.66 14 6 C10.62294375 5.46274105 7.303314 4.88935377 4 4 C4 3.34 4 2.68 4 2 C2.68 2 1.36 2 0 2 C0 1.34 0 0.68 0 0 Z " fill="#8273ED" transform="translate(560,134)"/>
<path d="M0 0 C7.02952752 0.4535179 12.5849443 2.12059087 19 5 C19 5.33 19 5.66 19 6 C14.09712935 6.29804685 10.6536414 5.34842506 6.125 3.5 C4.97257813 3.0359375 3.82015625 2.571875 2.6328125 2.09375 C1.76398437 1.7328125 0.89515625 1.371875 0 1 C0 0.67 0 0.34 0 0 Z " fill="#417BE1" transform="translate(541,129)"/>
<path d="M0 0 C-0.33 0.99 -0.66 1.98 -1 3 C-0.01 3.66 0.98 4.32 2 5 C2 5.66 2 6.32 2 7 C-2.38691545 6.49381745 -4.84391279 3.86917019 -8 1 C-8 0.67 -8 0.34 -8 0 C-2.25 -1.125 -2.25 -1.125 0 0 Z " fill="#B067F8" transform="translate(636,169)"/>
<path d="M0 0 C1.32 0 2.64 0 4 0 C4.33 1.32 4.66 2.64 5 4 C0.9472484 4.98248524 -2.83861737 5.08159574 -7 5 C-4.64046906 2.64046906 -3.22104383 2.50858587 0 2 C0 1.34 0 0.68 0 0 Z " fill="#2597CF" transform="translate(268,227)"/>
<path d="M0 0 C0.33 0.66 0.66 1.32 1 2 C0.31164062 2.56267578 0.31164062 2.56267578 -0.390625 3.13671875 C-3.33031089 5.5885156 -5.87902476 7.84542052 -8.25 10.875 C-8.8275 11.57625 -9.405 12.2775 -10 13 C-10.99 13 -11.98 13 -13 13 C-12.67 12.01 -12.34 11.02 -12 10 C-11.01 9.67 -10.02 9.34 -9 9 C-8.566875 8.236875 -8.13375 7.47375 -7.6875 6.6875 C-5.62842917 3.40823905 -3.28781317 1.9726879 0 0 Z " fill="#295CC7" transform="translate(13,243)"/>
<path d="M0 0 C0.66 0 1.32 0 2 0 C2 1.65 2 3.3 2 5 C1.01 5 0.02 5 -1 5 C-2.70532323 6.94009522 -2.70532323 6.94009522 -4 9 C-4.99 8.67 -5.98 8.34 -7 8 C-5.88200014 6.66079162 -4.75538103 5.32877444 -3.625 4 C-2.68527344 2.88625 -2.68527344 2.88625 -1.7265625 1.75 C-1.15679687 1.1725 -0.58703125 0.595 0 0 Z " fill="#3587D2" transform="translate(283,211)"/>
<path d="M0 0 C4.19469571 0.59924224 8.00999834 1.57499941 12 3 C12 3.66 12 4.32 12 5 C12.66 5.33 13.32 5.66 14 6 C8.42332136 5.22185879 3.7986729 4.39846336 0 0 Z " fill="#3378DB" transform="translate(564,138)"/>
<path d="M0 0 C1.32 0 2.64 0 4 0 C4.33 1.32 4.66 2.64 5 4 C5.33 3.34 5.66 2.68 6 2 C6.66 2 7.32 2 8 2 C8.66 3.65 9.32 5.3 10 7 C7.36 6.34 4.72 5.68 2 5 C2 4.34 2 3.68 2 3 C1.34 3 0.68 3 0 3 C0 2.01 0 1.02 0 0 Z " fill="#A869F0" transform="translate(572,136)"/>
<path d="M0 0 C3.63 0 7.26 0 11 0 C11.33 1.32 11.66 2.64 12 4 C9.525 3.01 9.525 3.01 7 2 C7 2.99 7 3.98 7 5 C6.34 4.67 5.68 4.34 5 4 C5.33 3.34 5.66 2.68 6 2 C4.35 2 2.7 2 1 2 C0.67 1.34 0.34 0.68 0 0 Z " fill="#2760C6" transform="translate(106,243)"/>
<path d="M0 0 C0.99 0 1.98 0 3 0 C3 0.99 3 1.98 3 3 C3.639375 3.268125 4.27875 3.53625 4.9375 3.8125 C7 5 7 5 8 8 C7.01 8 6.02 8 5 8 C5 7.34 5 6.68 5 6 C4.01 6 3.02 6 2 6 C0 1.125 0 1.125 0 0 Z " fill="#2D5DCB" transform="translate(723,240)"/>
<path d="M0 0 C1.32 0 2.64 0 4 0 C4 0.66 4 1.32 4 2 C5.65 2 7.3 2 9 2 C9.33 2.99 9.66 3.98 10 5 C11.29355827 6.37195574 12.62298702 7.71182656 14 9 C10.40241608 7.67726488 7.36262865 6.0805802 4.1875 3.9375 C3.39730469 3.41027344 2.60710938 2.88304687 1.79296875 2.33984375 C1.20128906 1.89769531 0.60960937 1.45554688 0 1 C0 0.67 0 0.34 0 0 Z " fill="#AF68F9" transform="translate(668,197)"/>
<path d="M0 0 C1 2 1 2 1 5 C1.66 5.66 2.32 6.32 3 7 C-1.7517398 6.56802365 -3.92000054 5.67230705 -7 2 C-4.69 1.34 -2.38 0.68 0 0 Z " fill="#A66AF5" transform="translate(625,162)"/>
<path d="M0 0 C0 1.32 0 2.64 0 4 C-2.97 3.67 -5.94 3.34 -9 3 C-8 1 -8 1 -5.0625 -0.1875 C-2 -1 -2 -1 0 0 Z " fill="#240B7B" transform="translate(77,209)"/>
<path d="M0 0 C6.19887485 -0.37952295 10.4477112 0.1647887 16 3 C12.23331402 4.3805087 9.55210827 3.59568159 5.75 2.5625 C4.13351563 2.13130859 4.13351563 2.13130859 2.484375 1.69140625 C1.25460938 1.34916016 1.25460938 1.34916016 0 1 C0 0.67 0 0.34 0 0 Z " fill="#152687" transform="translate(108,221)"/>
<path d="M0 0 C0.33 0 0.66 0 1 0 C1.40652968 5.42039575 0.03993514 9.07015675 -2 14 C-2.33 14 -2.66 14 -3 14 C-2.58846263 9.02906176 -2.20399168 4.55491614 0 0 Z " fill="#396ECE" transform="translate(287,196)"/>
<path d="M0 0 C0.66 0 1.32 0 2 0 C2 1.32 2 2.64 2 4 C0.02 4.33 -1.96 4.66 -4 5 C-4.66 3.68 -5.32 2.36 -6 1 C-4.68 1 -3.36 1 -2 1 C-2 1.66 -2 2.32 -2 3 C-1.34 3 -0.68 3 0 3 C0 2.01 0 1.02 0 0 Z " fill="#105DB1" transform="translate(582,121)"/>
<path d="M0 0 C0.66 0.33 1.32 0.66 2 1 C1.38125 1.2475 0.7625 1.495 0.125 1.75 C-2.42503925 3.25002309 -2.76222348 4.3697249 -4 7 C-5.29470975 8.37086915 -6.62150897 9.71340837 -8 11 C-7.42429187 7.11397015 -5.58424279 4.88827136 -3 2 C-2.01 1.34 -1.02 0.68 0 0 Z " fill="#1891D4" transform="translate(8,243)"/>
<path d="M0 0 C1.09570312 0.00902344 2.19140625 0.01804688 3.3203125 0.02734375 C4.16335937 0.03894531 5.00640625 0.05054688 5.875 0.0625 C5.875 0.3925 5.875 0.7225 5.875 1.0625 C3.235 1.0625 0.595 1.0625 -2.125 1.0625 C-2.125 1.7225 -2.125 2.3825 -2.125 3.0625 C-3.775 3.0625 -5.425 3.0625 -7.125 3.0625 C-7.455 2.4025 -7.785 1.7425 -8.125 1.0625 C-5.36047967 -0.31976016 -3.0788637 -0.03275387 0 0 Z " fill="#2962CC" transform="translate(50.125,230.9375)"/>
<path d="M0 0 C1.98 0 3.96 0 6 0 C5.401875 0.226875 4.80375 0.45375 4.1875 0.6875 C1.43648112 2.33811133 0.47515363 4.1972081 -1 7 C-2.32 6.67 -3.64 6.34 -5 6 C-4.01 5.67 -3.02 5.34 -2 5 C-0.78130071 2.49552484 -0.78130071 2.49552484 0 0 Z " fill="#A966EB" transform="translate(564,125)"/>
<path d="M0 0 C-7.95454545 5 -7.95454545 5 -13 5 C-10.83470418 2.58355702 -8.97842441 1.36405829 -5.9375 0.25 C-4.89916016 -0.14445313 -4.89916016 -0.14445313 -3.83984375 -0.546875 C-2 -1 -2 -1 0 0 Z " fill="#2164C9" transform="translate(26,237)"/>
<path d="M0 0 C-1.5625 2.0625 -1.5625 2.0625 -4 4 C-7.75 3.75 -7.75 3.75 -11 3 C-7.11595442 0.41063628 -4.5725325 -0.12358196 0 0 Z " fill="#2C66CA" transform="translate(314,177)"/>
<path d="M0 0 C1.48253267 0.61697319 2.96095174 1.24383896 4.4375 1.875 C5.67306641 2.39707031 5.67306641 2.39707031 6.93359375 2.9296875 C9 4 9 4 10 6 C6.28111761 5.49287967 3.26545761 4.88391785 0 3 C0 2.01 0 1.02 0 0 Z " fill="#4E6CDD" transform="translate(620,166)"/>
<path d="M0 0 C-0.33 1.65 -0.66 3.3 -1 5 C-2.65 4.67 -4.3 4.34 -6 4 C-6.33 3.01 -6.66 2.02 -7 1 C-4.50935112 0.31292445 -2.62113708 0 0 0 Z " fill="#0F6BBB" transform="translate(656,155)"/>
<path d="M0 0 C1.84765625 0.33984375 1.84765625 0.33984375 4.0625 0.9375 C5.16271484 1.22947266 5.16271484 1.22947266 6.28515625 1.52734375 C7.13400391 1.76130859 7.13400391 1.76130859 8 2 C8 2.33 8 2.66 8 3 C3.545 3.495 3.545 3.495 -1 4 C-1 1 -1 1 0 0 Z " fill="#9372EB" transform="translate(562,121)"/>
<path d="M0 0 C-1.15173355 2.46800047 -2.04783565 4.04783565 -4 6 C-4.99 6 -5.98 6 -7 6 C-5.81636731 2.44910192 -3.99368042 0 0 0 Z " fill="#133090" transform="translate(278,216)"/>
<path d="M0 0 C0.99 0 1.98 0 3 0 C3.66 1.32 4.32 2.64 5 4 C3.35 4.33 1.7 4.66 0 5 C-0.5625 3.0625 -0.5625 3.0625 -1 1 C-0.67 0.67 -0.34 0.34 0 0 Z " fill="#2073D5" transform="translate(648,186)"/>
<path d="M0 0 C2.97 0 5.94 0 9 0 C9.33 0.99 9.66 1.98 10 3 C3.375 2.25 3.375 2.25 0 0 Z " fill="#7E77EF" transform="translate(538,127)"/>
<path d="M0 0 C3.63 0.66 7.26 1.32 11 2 C11 2.33 11 2.66 11 3 C7.7 3 4.4 3 1 3 C0.67 2.01 0.34 1.02 0 0 Z " fill="#1573C6" transform="translate(133,247)"/>
<path d="M0 0 C0.66 0 1.32 0 2 0 C1 3 1 3 -1.4375 4.75 C-2.7059375 5.36875 -2.7059375 5.36875 -4 6 C-4.66 5.67 -5.32 5.34 -6 5 C-5.67 4.01 -5.34 3.02 -5 2 C-3.35 2 -1.7 2 0 2 C0 1.34 0 0.68 0 0 Z " fill="#143590" transform="translate(268,223)"/>
<path d="M0 0 C3.99500618 1.3697164 6.80009492 3.25722422 10 6 C6.68437443 5.44739574 3.84937793 4.83174295 1 3 C0.67 2.01 0.34 1.02 0 0 Z " fill="#A36CF1" transform="translate(710,194)"/>
<path d="M0 0 C2.97 0.495 2.97 0.495 6 1 C6.33 1.99 6.66 2.98 7 4 C7.99 4.33 8.98 4.66 10 5 C9.01 5.495 9.01 5.495 8 6 C5.875 5.0625 5.875 5.0625 4 4 C4 3.34 4 2.68 4 2 C2.68 1.34 1.36 0.68 0 0 Z " fill="#AF6AF8" transform="translate(654,187)"/>
<path d="M0 0 C-0.556875 0.268125 -1.11375 0.53625 -1.6875 0.8125 C-4.08933398 2.00699665 -4.08933398 2.00699665 -6.625 3.625 C-9 5 -9 5 -11 5 C-11.33 4.01 -11.66 3.02 -12 2 C-7.8803623 0.70756464 -4.33168317 -0.26252625 0 0 Z " fill="#246BCD" transform="translate(328,174)"/>
<path d="M0 0 C1.65 0 3.3 0 5 0 C5.33 1.32 5.66 2.64 6 4 C4.35 4 2.7 4 1 4 C0.67 2.68 0.34 1.36 0 0 Z " fill="#AA6DF1" transform="translate(584,130)"/>
<path d="M0 0 C1.98 0 3.96 0 6 0 C6 0.99 6 1.98 6 3 C4.68 3.33 3.36 3.66 2 4 C1.34 2.68 0.68 1.36 0 0 Z " fill="#219BCE" transform="translate(250,235)"/>
<path d="M0 0 C1.485 0.99 1.485 0.99 3 2 C5.15274948 1.69159401 5.15274948 1.69159401 7 1 C6.67 1.99 6.34 2.98 6 4 C4.02 4.33 2.04 4.66 0 5 C0 3.35 0 1.7 0 0 Z " fill="#24258E" transform="translate(256,225)"/>
<path d="M0 0 C2.31 0.66 4.62 1.32 7 2 C7 2.66 7 3.32 7 4 C6.01 4.33 5.02 4.66 4 5 C3.34 4.34 2.68 3.68 2 3 C1.34 3 0.68 3 0 3 C0 2.01 0 1.02 0 0 Z " fill="#2B64CF" transform="translate(684,212)"/>
<path d="M0 0 C4.875 1.75 4.875 1.75 6 4 C4.02 4.33 2.04 4.66 0 5 C0 3.35 0 1.7 0 0 Z " fill="#DB58F8" transform="translate(648,162)"/>
<path d="M0 0 C2.86697492 1.28519565 4.97607712 2.57129254 7 5 C7 5.66 7 6.32 7 7 C5.1875 6.875 5.1875 6.875 3 6 C1.25 2.9375 1.25 2.9375 0 0 Z " fill="#2966C1" transform="translate(643,152)"/>
<path d="M0 0 C5.41538462 -0.36923077 5.41538462 -0.36923077 8.375 1.5 C8.91125 1.995 9.4475 2.49 10 3 C4.58461538 3.36923077 4.58461538 3.36923077 1.625 1.5 C1.08875 1.005 0.5525 0.51 0 0 Z " fill="#B46AF4" transform="translate(622,148)"/>
<path d="M0 0 C1.32 0.33 2.64 0.66 4 1 C3.67 2.65 3.34 4.3 3 6 C2.01 5.34 1.02 4.68 0 4 C0 2.68 0 1.36 0 0 Z " fill="#BB61F3" transform="translate(580,137)"/>
<path d="M0 0 C0.66 0 1.32 0 2 0 C2 0.66 2 1.32 2 2 C2.78375 2.268125 3.5675 2.53625 4.375 2.8125 C7 4 7 4 9 7 C5.07353523 5.69117841 2.72225079 4.1255472 0 1 C0 0.67 0 0.34 0 0 Z " fill="#6056D5" transform="translate(690,213)"/>
<path d="M0 0 C0.66 0.33 1.32 0.66 2 1 C1.67 1.66 1.34 2.32 1 3 C2.32 2.34 3.64 1.68 5 1 C5.33 1.99 5.66 2.98 6 4 C3.36 4 0.72 4 -2 4 C-1.34 2.68 -0.68 1.36 0 0 Z " fill="#37037D" transform="translate(80,209)"/>
<path d="M0 0 C1.65 0 3.3 0 5 0 C5 0.99 5 1.98 5 3 C3.35 3 1.7 3 0 3 C0 2.01 0 1.02 0 0 Z " fill="#DA57F7" transform="translate(694,187)"/>
<path d="M0 0 C0.33 1.32 0.66 2.64 1 4 C-1.49092811 5.24546405 -2.41080733 4.7767578 -5 4 C-5 3.01 -5 2.02 -5 1 C-3.35 0.67 -1.7 0.34 0 0 Z " fill="#0773BF" transform="translate(679,168)"/>
</svg>
